<svg width="239" height="30" viewBox="0 0 239 30" fill="none" xmlns="http://www.w3.org/2000/svg">
<g opacity="0.5" clip-path="url(#clip0_73_548)">
<path d="M69.193 29.8875V23.4709H57.5016C59.9467 27.1858 64.2748 29.606 69.193 29.8875Z" fill="black"/>
<path d="M82.7957 23.4709H71.1042V29.8875C75.9944 29.6342 80.3225 27.1013 82.7957 23.4709Z" fill="black"/>
<path d="M71.1042 0V6.33208H82.7957C80.2663 2.78612 76.0225 0.281426 71.1042 0Z" fill="black"/>
<path d="M57.5016 6.33208H69.193V0C64.2185 0.337711 59.9748 2.72983 57.5016 6.33208Z" fill="black"/>
<path d="M69.1931 21.895V15.9006H55.2252C55.2533 18.0395 55.7873 20.0376 56.4899 21.895C56.4056 22.0076 69.1931 21.895 69.1931 21.895Z" fill="black"/>
<path d="M85.0721 15.9006H71.1042V21.895C71.048 22.0076 83.8074 21.895 83.8074 21.895C84.4257 20.0939 84.9597 18.0113 85.0721 15.9006Z" fill="black"/>
<path d="M71.1042 7.85181V13.9869H85.0721C84.9597 11.9325 84.5101 9.73736 83.8074 7.85181H71.1042Z" fill="black"/>
<path d="M55.2252 13.9869H69.1931V7.85181C69.1369 7.85181 56.4899 7.85181 56.4899 7.85181C55.7592 9.82179 55.3376 11.8199 55.2252 13.9869Z" fill="black"/>
<path d="M0 29.5498V28.3396H2.33267L2.97907 28.2271C3.85031 28.0301 4.32808 27.6079 4.41239 26.9325V3.06758C4.32808 2.39216 3.85031 1.97002 3.00717 1.77302L2.38888 1.66045H0V0.450317H26.2495L26.8959 9.14638H25.4064L25.2659 7.68296C24.9286 6.02255 24.1979 4.72799 23.1018 3.85557C22.0058 2.95501 20.9378 2.39216 19.9541 2.11073C18.9424 1.8293 17.6215 1.68859 15.9633 1.68859H12.7594C12.2816 1.68859 11.9163 1.77302 11.7195 1.97002C11.5228 2.16702 11.4104 2.50473 11.4104 2.98315V13.1989H12.4503C16.3568 13.1989 18.4646 11.6229 18.7738 8.44281V7.42968H20.5162V20.1501H18.7456L18.8019 19.0244C18.8019 15.9287 16.6659 14.3809 12.4222 14.3809H11.4666V26.7074C11.4666 27.7768 12.0006 28.3396 13.0405 28.3396H16.0195C18.6894 28.3396 20.7973 27.7768 22.3992 26.6511C24.0012 25.5254 24.9286 24.3715 25.1816 23.1895C25.4345 21.9794 25.575 21.2758 25.6312 21.0225C25.6874 20.7693 25.6874 20.4878 25.6874 20.122H27.1489L26.3901 29.5498H0Z" fill="black"/>
<path d="M26.7836 1.77302V0.450317H41.1168V1.77302H38.9809L38.3907 1.88559C37.6319 2.08259 37.2103 2.50473 37.126 3.18015V26.6229C37.126 27.7486 37.6319 28.3115 38.6717 28.3115H41.2573C43.309 28.3115 44.9952 27.5798 46.3724 26.1164C47.7495 24.6529 48.705 22.4297 49.2671 19.4466L49.4638 18.1239H50.8691L50.2789 29.5216H26.7836V28.3115H28.9476L29.5378 28.1989C30.3528 28.0019 30.7744 27.5516 30.8587 26.8762V3.18015C30.7463 2.50473 30.2966 2.08259 29.5378 1.88559L29.06 1.77302H26.7836Z" fill="black"/>
<path d="M86.5617 29.5498V28.3396H88.7538L89.3721 28.2271C90.3277 28.0301 90.8054 27.4953 90.8054 26.5666V3.18015C90.7211 2.50473 90.2715 2.08259 89.4564 1.88559L88.8381 1.77302H86.5898V0.450317H99.3492L104.942 19.2496L111.013 0.450317H123.069V1.77302H120.905L120.259 1.88559C119.416 2.08259 118.966 2.50473 118.882 3.18015V26.8762C118.966 27.5516 119.416 28.0019 120.259 28.1989L120.737 28.3115H123.041V29.5216H108.567V28.3115H110.788L111.406 28.1989C112.277 27.9738 112.727 27.5235 112.727 26.8762V2.67358L104.324 29.5216H100.923L92.5198 2.4203V26.8762C92.6041 27.5798 93.0538 28.0301 93.8688 28.1989L94.3466 28.3115H96.6793V29.5216H86.5336L86.5617 29.5498Z" fill="black"/>
<path d="M124.278 1.66045V0.450317H138.386V1.66045H136.531L136.025 1.77302C135.379 1.97002 134.985 2.39216 134.901 3.09572V21.3321C134.901 23.3865 135.351 24.8499 135.969 25.8631C136.25 26.3134 137.093 26.7074 137.936 26.9888C138.751 27.2702 139.229 27.2983 140.1 27.2983C140.494 27.2983 140.691 27.2983 141.084 27.2421C141.674 27.1858 142.012 27.1295 142.546 26.9606C143.642 26.5948 144.288 26.3134 145.019 25.2721C145.778 24.2308 146.087 23.077 146.087 20.9381V3.63043L146.621 3.43343L146.087 3.12386C146.002 2.64544 145.89 2.30773 145.693 2.13887C145.497 1.97002 145.272 1.85745 144.991 1.77302L144.597 1.66045H142.602V0.450317H151.651V1.66045H149.797L149.234 1.77302C148.504 1.97002 148.138 2.39216 148.054 3.09572V20.7411C148.054 23.6398 147.52 25.7786 146.48 27.1576C145.412 28.5366 144.119 29.3528 142.574 29.606C141.028 29.8593 137.262 30 136.587 30H135.772C135.519 29.9438 134.704 29.8312 133.327 29.6623C131.95 29.4935 130.657 28.7618 129.505 27.4672C128.325 26.1726 127.763 24.2871 127.763 21.8105V3.06758C127.678 2.4203 127.341 1.97002 126.667 1.74488L126.245 1.66045H124.278Z" fill="black"/>
<path d="M152.747 29.5498V28.3396H154.968L155.586 28.2271C156.401 28.0301 156.879 27.5798 156.991 26.9044V3.51786C156.879 2.6173 156.429 2.08259 155.586 1.91373L155.136 1.80116H152.747V0.450317H162.949L175.512 21.3603V3.18015C175.4 2.50473 174.95 2.08259 174.135 1.88559L173.629 1.77302H171.268V0.450317H181.358V1.77302H179.109L178.519 1.88559C177.648 2.11073 177.198 2.53287 177.198 3.18015V29.5498H172.505L158.678 7.23268V26.8762C158.678 27.5516 159.127 27.9738 160.055 28.1989L160.589 28.3115H162.949V29.5216H152.691L152.747 29.5498Z" fill="black"/>
<path fill-rule="evenodd" clip-rule="evenodd" d="M181.948 29.5498V28.3396H184.281L184.927 28.2271C185.798 28.0301 186.248 27.5798 186.36 26.9044V3.12386C186.248 2.44844 185.77 1.99816 184.983 1.77302H182.004V0.450317H196.647C200.188 0.450317 203.111 1.26645 205.5 2.87058C207.86 4.47471 209.434 6.41655 210.193 8.6961C210.952 10.9475 211.317 13.0301 211.317 14.9156C211.317 18.9963 210.165 22.289 207.86 24.8781C205.556 27.4672 202.52 28.9588 198.726 29.4372L196.815 29.5498H181.976H181.948ZM193.021 26.4822C193.021 27.2139 193.134 27.6923 193.387 27.9456C193.639 28.1989 194.089 28.3396 194.736 28.3396H196.759C199.429 28.3396 200.947 27.3828 202.408 25.4972C203.869 23.6117 204.6 20.6004 204.6 16.4916V13.5366C204.6 12.6642 204.544 11.7918 204.46 10.8912C204.347 9.99065 204.122 8.80867 203.701 7.31711C203.307 5.85369 202.661 4.64356 201.79 3.71486C200.919 2.78615 200.188 2.39216 198.951 1.97002C198.305 1.74488 197.715 1.63231 197.209 1.63231H194.679C194.033 1.63231 193.583 1.74488 193.358 1.97002C193.134 2.19516 193.021 2.6173 193.021 3.29272V26.4822Z" fill="black"/>
<path fill-rule="evenodd" clip-rule="evenodd" d="M213.481 15.0001V13.9025C213.481 13.5929 213.65 12.2702 213.959 9.96253C214.268 7.65484 215.561 5.40343 217.809 3.2646C220.058 1.09762 222.868 0.0281982 226.269 0.0281982C229.669 0.0281982 232.424 1.09762 234.672 3.2646C236.92 5.43157 238.213 7.71112 238.522 10.1032C238.831 12.4954 239 13.8462 239 14.1276C239 14.4091 239 14.7186 239 15.0282C239 15.3378 239 15.6473 239 15.9569C239 16.2665 238.831 17.5892 238.522 19.9813C238.213 22.3734 236.948 24.6248 234.7 26.7918C232.48 28.9588 229.669 30.0282 226.269 30.0282C222.868 30.0282 220.086 28.9588 217.809 26.7918C215.561 24.6248 214.296 22.486 213.987 20.3471C213.706 18.2083 213.537 16.8856 213.509 16.379C213.509 15.8725 213.481 15.4222 213.481 15.0282V15.0001ZM220.507 15.2252V17.2515C220.507 18.2365 220.507 18.8837 220.535 19.2214C220.535 19.5592 220.704 20.6286 220.957 22.4297C221.238 24.259 221.8 25.6942 222.643 26.7918C223.514 27.8894 224.667 28.4522 226.184 28.4522C227.702 28.4522 228.798 27.8894 229.669 26.7918C230.541 25.6661 231.103 24.3715 231.328 22.88C231.552 21.3884 231.693 20.2909 231.749 19.6154C231.805 18.94 231.833 18.152 231.833 17.2515V13.1989C231.833 12.0451 231.833 11.2852 231.777 10.8631C231.749 10.441 231.609 9.51225 231.412 8.13326C231.187 6.72613 230.794 5.48786 230.203 4.44658C229.613 3.37717 228.911 2.70174 228.096 2.42032C227.28 2.13889 226.943 1.99818 226.353 1.99818C223.627 1.99818 221.688 3.34902 221.266 6.05071C220.845 8.7524 220.62 10.3847 220.564 10.8912C220.507 11.4259 220.479 12.2139 220.479 13.2271V15.2533L220.507 15.2252Z" fill="black"/>
</g>
<defs>
<clipPath id="clip0_73_548">
<rect width="239" height="30" fill="white"/>
</clipPath>
</defs>
</svg>
