<svg width="198" height="44" viewBox="0 0 198 44" fill="none" xmlns="http://www.w3.org/2000/svg">
<g clip-path="url(#clip0_73_528)">
<path d="M144.961 4.14643H164.193V0.0710449L144.961 4.14643Z" fill="#0069A0"/>
<path d="M0 42.8863H35.4137V27.4141H31.4323C30.9433 35.6359 29.0108 38.7873 24.0748 38.7873H13.3645V25.9213H16.2051C19.4182 25.9213 20.885 27.6273 20.885 32.1055V33.4324H24.8664V14.9747H20.885V15.6855C20.885 20.1637 19.4414 21.8223 16.2051 21.8223H13.3645V10.3306H22.8175C30.012 10.3306 30.6639 13.3161 31.4555 20.8271H35.437V6.25521H0V10.3543H2.42145C5.21543 10.3543 5.86736 11.0651 5.86736 13.4582V34.9251C5.86736 38.2423 4.8429 38.7873 3.02681 38.7873H0V42.8863ZM37.1832 42.8863H70.7342V27.1297H66.7528C66.2639 35.707 64.9367 38.8346 59.3953 38.8346H50.6409V12.8185C50.6409 10.8756 51.4558 10.3306 53.8074 10.3306H56.8109V6.23152H37.1832V10.3306H40.3031C42.4452 10.3306 43.1437 11.0414 43.1437 12.7V36.3705C43.1437 38.2423 42.1192 38.8109 40.6291 38.8109H37.1832V42.91V42.8863ZM107.289 16.3726C107.289 20.6375 104.611 22.2251 99.5588 22.2251H94.6693V10.3306H99.5588C105.147 10.3306 107.289 12.1077 107.289 16.3489V16.3726ZM115.135 16.3015C115.135 10.0463 110.525 6.25521 102.469 6.25521H81.4212V10.3543H84.8671C86.1011 10.3543 87.1721 10.8045 87.1721 12.2261V36.9154C87.1721 38.3608 86.1011 38.7873 84.8671 38.7873H81.4212V42.8863H100.7V38.7873H97.2538C96.0198 38.7873 94.6693 38.3371 94.6693 36.9154V26.3004H103.098C110.292 26.3004 115.112 23.1017 115.112 16.3015H115.135ZM131.806 27.0113H122.726L127.01 13.6952H127.126L131.806 27.0113ZM148.127 42.8626H164.123V38.7636H161.003C159.187 38.7636 158.372 37.8158 158.372 36.0624V12.9843C158.372 10.8756 160.025 10.3306 161.748 10.3306H164.123V6.23152H145.124V10.3306H148.127C150.223 10.3306 150.852 11.4442 150.852 12.8185V36.8206C150.852 38.2186 150.013 38.7636 147.918 38.7873C145.194 38.7873 143.424 38.3371 142.47 35.8255L131.736 6.25521H124.216L113.971 35.8255C113.063 38.4318 111.177 38.8109 108.337 38.8109V42.91H125.077V38.8109H120.886C119.862 38.8109 119.163 38.5977 119.163 37.8158C119.163 37.3182 119.28 36.9865 119.373 36.6548L121.142 31.134H133.319L135.089 36.6548C135.205 36.9865 135.298 37.4841 135.298 37.9817C135.298 38.5266 134.856 38.8109 133.645 38.8109H129.408V42.91H148.081L148.127 42.8626ZM192.04 20.14H195.905V6.25521H192.785L191.015 9.02743C188.337 7.08451 184.892 5.16528 180.817 5.16528C174.321 5.16528 167.499 8.48246 167.499 16.2778C167.499 32.0818 191.434 24.9499 191.434 34.4038C191.434 37.0576 189.176 39.3322 184.449 39.3322C176.836 39.3322 172.435 35.3516 171.667 27.959H167.685V42.9337H171.341L172.528 39.6639C175.648 42.2703 179.653 44.0237 183.681 44.0237C191.201 44.0237 197.837 41.1567 197.837 32.3661C197.837 16.9413 173.902 23.1491 173.902 14.8562C173.902 11.2073 175.951 9.88041 180.933 9.88041C187.313 9.88041 190.712 14.1927 191.993 20.2111" fill="black"/>
</g>
<defs>
<clipPath id="clip0_73_528">
<rect width="198" height="44" fill="white"/>
</clipPath>
</defs>
</svg>
