<svg width="124" height="28" viewBox="0 0 124 28" fill="none" xmlns="http://www.w3.org/2000/svg">
<g opacity="0.5" clip-path="url(#clip0_99_1204)">
<path d="M90.7836 2.63866H102.828V0.0452271L90.7836 2.63866Z" fill="black"/>
<path d="M0 27.2914H22.1783V17.4454H19.6849C19.3786 22.6775 18.1684 24.6828 15.0771 24.6828H8.36971V16.4954H10.1486C12.1609 16.4954 13.0795 17.5811 13.0795 20.4308V21.2752H15.5729V9.52938H13.0795V9.98172C13.0795 12.8315 12.1754 13.8869 10.1486 13.8869H8.36971V6.57407H14.2897C18.7954 6.57407 19.2037 8.47391 19.6994 13.2537H22.1929V3.98064H0V6.58915H1.51646C3.26623 6.58915 3.67451 7.04149 3.67451 8.56438V22.2251C3.67451 24.3361 3.03293 24.6828 1.89558 24.6828H0V27.2914ZM23.2865 27.2914H44.2982V17.2644H41.8048C41.4986 22.7227 40.6674 24.713 37.1971 24.713H31.7145V8.15727C31.7145 6.92087 32.2248 6.57407 33.6976 6.57407H35.5785V3.96556H23.2865V6.57407H25.2404C26.5818 6.57407 27.0193 7.02641 27.0193 8.08188V23.1449C27.0193 24.3361 26.3777 24.6979 25.4445 24.6979H23.2865V27.3064V27.2914ZM67.191 10.419C67.191 13.133 65.5141 14.1433 62.3499 14.1433H59.2879V6.57407H62.3499C65.8495 6.57407 67.191 7.70493 67.191 10.4039V10.419ZM72.1049 10.3737C72.1049 6.39313 69.2178 3.98064 64.1726 3.98064H50.9911V6.58915H53.1491C53.9219 6.58915 54.5927 6.87563 54.5927 7.78032V23.4917C54.5927 24.4114 53.9219 24.6828 53.1491 24.6828H50.9911V27.2914H63.0644V24.6828H60.9064C60.1336 24.6828 59.2879 24.3964 59.2879 23.4917V16.7367H64.5663C69.072 16.7367 72.0903 14.7012 72.0903 10.3737H72.1049ZM82.5452 17.189H76.8584L79.5414 8.71516H79.6143L82.5452 17.189ZM92.7667 27.2763H102.784V24.6678H100.83C99.6928 24.6678 99.1825 24.0646 99.1825 22.9489V8.26282C99.1825 6.92087 100.218 6.57407 101.297 6.57407H102.784V3.96556H90.8857V6.57407H92.7667C94.079 6.57407 94.4727 7.28274 94.4727 8.15727V23.4314C94.4727 24.321 93.9478 24.6678 92.6355 24.6828C90.9294 24.6828 89.8213 24.3964 89.2234 22.7981L82.5014 3.98064H77.7916L71.3758 22.7981C70.8071 24.4567 69.6261 24.6979 67.8471 24.6979V27.3064H78.3311V24.6979H75.7065C75.0649 24.6979 74.6275 24.5622 74.6275 24.0646C74.6275 23.748 74.7004 23.5369 74.7587 23.3258L75.8669 19.8126H83.4929L84.6011 23.3258C84.674 23.5369 84.7324 23.8536 84.7324 24.1702C84.7324 24.517 84.4553 24.6979 83.6971 24.6979H81.0433V27.3064H92.7375L92.7667 27.2763ZM120.267 12.8164H122.688V3.98064H120.734L119.626 5.74478C117.949 4.50837 115.791 3.28705 113.239 3.28705C109.171 3.28705 104.898 5.39798 104.898 10.3587C104.898 20.4157 119.888 15.8772 119.888 21.8934C119.888 23.5821 118.474 25.0296 115.514 25.0296C110.746 25.0296 107.99 22.4965 107.508 17.7922H105.015V27.3215H107.304L108.048 25.2407C110.002 26.8993 112.51 28.0151 115.032 28.0151C119.742 28.0151 123.898 26.1907 123.898 20.5967C123.898 10.7809 108.908 14.7313 108.908 9.45398C108.908 7.13196 110.191 6.28759 113.312 6.28759C117.307 6.28759 119.436 9.0318 120.238 12.8616" fill="black"/>
</g>
<defs>
<clipPath id="clip0_99_1204">
<rect width="124" height="28" fill="white"/>
</clipPath>
</defs>
</svg>
