<svg width="123" height="16" viewBox="0 0 123 16" fill="none" xmlns="http://www.w3.org/2000/svg">
<g opacity="0.5" clip-path="url(#clip0_99_1219)">
<path d="M35.6099 15.94V12.5178H29.593C30.8514 14.4991 33.0788 15.7899 35.6099 15.94Z" fill="black"/>
<path d="M42.6102 12.5178H36.5933V15.94C39.11 15.8049 41.3374 14.454 42.6102 12.5178Z" fill="black"/>
<path d="M36.5933 0V3.37711H42.6102C41.3085 1.48593 39.1244 0.150094 36.5933 0Z" fill="black"/>
<path d="M29.593 3.37711H35.6099V0C33.0499 0.180113 30.8658 1.45591 29.593 3.37711Z" fill="black"/>
<path d="M35.6098 11.6773V8.48029H28.4213C28.4358 9.621 28.7106 10.6867 29.0722 11.6773C29.0288 11.7373 35.6098 11.6773 35.6098 11.6773Z" fill="black"/>
<path d="M43.7819 8.48029H36.5934V11.6773C36.5644 11.7373 43.131 11.6773 43.131 11.6773C43.4492 10.7167 43.724 9.60599 43.7819 8.48029Z" fill="black"/>
<path d="M36.5933 4.1875V7.45954H43.7818C43.7239 6.36386 43.4925 5.19313 43.1309 4.1875H36.5933Z" fill="black"/>
<path d="M28.4214 7.45954H35.6099V4.1875C35.581 4.1875 29.0723 4.1875 29.0723 4.1875C28.6962 5.23816 28.4792 6.30382 28.4214 7.45954Z" fill="black"/>
<path d="M0 15.7599V15.1145H1.20049L1.53316 15.0544C1.98154 14.9494 2.22742 14.7242 2.27081 14.364V1.63605C2.22742 1.27582 1.98154 1.05068 1.54762 0.945614L1.22942 0.885577H0V0.240173H13.5092L13.8418 4.87807H13.0753L13.0029 4.09758C12.8294 3.21203 12.4533 2.5216 11.8892 2.05631C11.3251 1.57601 10.7755 1.27582 10.2693 1.12573C9.74859 0.975633 9.06879 0.900586 8.21543 0.900586H6.56656C6.32067 0.900586 6.13264 0.945614 6.0314 1.05068C5.93015 1.15575 5.87229 1.33586 5.87229 1.59102V7.03942H6.40745C8.41792 7.03942 9.5027 6.1989 9.66181 4.50284V3.9625H10.5586V10.7467H9.64734L9.67627 10.1464C9.67627 8.49533 8.57702 7.66982 6.39299 7.66982H5.90122V14.2439C5.90122 14.8143 6.17603 15.1145 6.71119 15.1145H8.24436C9.61841 15.1145 10.7032 14.8143 11.5276 14.2139C12.3521 13.6135 12.8294 12.9981 12.9595 12.3678C13.0897 11.7223 13.162 11.3471 13.191 11.212C13.2199 11.0769 13.2199 10.9269 13.2199 10.7317H13.972L13.5815 15.7599H0Z" fill="black"/>
<path d="M13.784 0.945614V0.240173H21.1605V0.945614H20.0613L19.7575 1.00565C19.367 1.11072 19.15 1.33586 19.1067 1.69608V14.1989C19.1067 14.7993 19.367 15.0995 19.9022 15.0995H21.2328C22.2887 15.0995 23.1565 14.7092 23.8652 13.9287C24.574 13.1482 25.0657 11.9625 25.355 10.3715L25.4563 9.66606H26.1794L25.8757 15.7449H13.784V15.0995H14.8977L15.2014 15.0394C15.6209 14.9344 15.8378 14.6942 15.8812 14.334V1.69608C15.8234 1.33586 15.592 1.11072 15.2014 1.00565L14.9555 0.945614H13.784Z" fill="black"/>
<path d="M44.5485 15.7599V15.1145H45.6766L45.9948 15.0544C46.4866 14.9494 46.7325 14.6642 46.7325 14.1689V1.69608C46.6891 1.33586 46.4577 1.11072 46.0382 1.00565L45.72 0.945614H44.5629V0.240173H51.1295L54.0078 10.2664L57.1319 0.240173H63.3369V0.945614H62.2232L61.8905 1.00565C61.4566 1.11072 61.2252 1.33586 61.1818 1.69608V14.334C61.2252 14.6942 61.4566 14.9344 61.8905 15.0394L62.1364 15.0995H63.3224V15.7449H55.8736V15.0995H57.0162L57.3344 15.0394C57.7828 14.9193 58.0142 14.6792 58.0142 14.334V1.42591L53.6896 15.7449H51.9395L47.6148 1.29083V14.334C47.6582 14.7092 47.8896 14.9494 48.309 15.0394L48.5549 15.0995H49.7554V15.7449H44.534L44.5485 15.7599Z" fill="black"/>
<path d="M63.9587 0.885638V0.240234H71.2196V0.885638H70.265L70.0046 0.945675C69.6719 1.05074 69.4694 1.27588 69.426 1.65112V11.3772C69.426 12.4729 69.6575 13.2534 69.9757 13.7937C70.1203 14.0339 70.5542 14.244 70.9881 14.3941C71.4076 14.5442 71.6535 14.5592 72.1018 14.5592C72.3043 14.5592 72.4056 14.5592 72.6081 14.5292C72.9118 14.4991 73.0854 14.4691 73.3602 14.3791C73.9243 14.1839 74.257 14.0339 74.633 13.4785C75.0235 12.9232 75.1826 12.3078 75.1826 11.1671V1.93629L75.4574 1.83123L75.1826 1.66613C75.1392 1.41097 75.0814 1.23085 74.9801 1.1408C74.8789 1.05074 74.7632 0.990703 74.6185 0.945675L74.4161 0.885638H73.3891V0.240234H78.0465V0.885638H77.0919L76.8026 0.945675C76.4265 1.05074 76.2385 1.27588 76.1951 1.65112V11.062C76.1951 12.608 75.9203 13.7487 75.3851 14.4841C74.8355 15.2196 74.1702 15.6549 73.3747 15.79C72.5792 15.925 70.641 16.0001 70.2939 16.0001H69.8744C69.7443 15.9701 69.3248 15.91 68.6161 15.82C67.9073 15.7299 67.242 15.3397 66.649 14.6492C66.0415 13.9588 65.7522 12.9532 65.7522 11.6324V1.63611C65.7089 1.29089 65.5353 1.05074 65.1882 0.930666L64.9712 0.885638H63.9587Z" fill="black"/>
<path d="M78.6106 15.7599V15.1145H79.7533L80.0715 15.0544C80.4909 14.9494 80.7368 14.7092 80.7947 14.349V1.8762C80.7368 1.3959 80.5054 1.11072 80.0715 1.02066L79.8401 0.960624H78.6106V0.240173H83.861L90.3263 11.3921V1.69608C90.2685 1.33586 90.037 1.11072 89.6176 1.00565L89.3572 0.945614H88.1423V0.240173H93.3348V0.945614H92.1777L91.8739 1.00565C91.4256 1.12573 91.1941 1.35087 91.1941 1.69608V15.7599H88.7787L81.6625 3.85743V14.334C81.6625 14.6942 81.8939 14.9193 82.3712 15.0394L82.646 15.0995H83.861V15.7449H78.5817L78.6106 15.7599Z" fill="black"/>
<path fill-rule="evenodd" clip-rule="evenodd" d="M93.6385 15.7599V15.1145H94.839L95.1717 15.0544C95.6201 14.9494 95.8515 14.7092 95.9093 14.349V1.66606C95.8515 1.30584 95.6056 1.06569 95.2006 0.945614H93.6675V0.240173H101.203C103.026 0.240173 104.53 0.675445 105.759 1.53098C106.974 2.38651 107.784 3.42216 108.175 4.63792C108.565 5.83867 108.753 6.94937 108.753 7.95499C108.753 10.1314 108.16 11.8875 106.974 13.2683C105.788 14.6492 104.226 15.4447 102.273 15.6998L101.29 15.7599H93.653H93.6385ZM99.3373 14.1238C99.3373 14.5141 99.3951 14.7693 99.5253 14.9043C99.6555 15.0394 99.8869 15.1145 100.22 15.1145H101.261C102.635 15.1145 103.416 14.6041 104.168 13.5985C104.92 12.5929 105.296 10.9869 105.296 8.79552V7.21953C105.296 6.75424 105.267 6.28895 105.224 5.80865C105.166 5.32835 105.05 4.69796 104.833 3.90246C104.631 3.12197 104.298 2.47657 103.85 1.98126C103.402 1.48595 103.026 1.27582 102.389 1.05068C102.056 0.930605 101.753 0.870567 101.492 0.870567H100.191C99.8579 0.870567 99.6265 0.930605 99.5108 1.05068C99.3951 1.17075 99.3373 1.3959 99.3373 1.75612V14.1238Z" fill="black"/>
<path fill-rule="evenodd" clip-rule="evenodd" d="M109.867 7.99988V7.41452C109.867 7.24941 109.954 6.54397 110.113 5.3132C110.272 4.08243 110.937 2.88168 112.094 1.74097C113.251 0.585249 114.698 0.0148926 116.448 0.0148926C118.198 0.0148926 119.616 0.585249 120.773 1.74097C121.93 2.89669 122.595 4.11245 122.754 5.38825C122.913 6.66405 123 7.3845 123 7.53459C123 7.68469 123 7.84979 123 8.01489C123 8.18 123 8.3451 123 8.5102C123 8.67531 122.913 9.38075 122.754 10.6565C122.595 11.9323 121.944 13.1331 120.787 14.2888C119.644 15.4445 118.198 16.0149 116.448 16.0149C114.698 16.0149 113.266 15.4445 112.094 14.2888C110.937 13.1331 110.286 11.9924 110.127 10.8517C109.983 9.71095 109.896 9.00551 109.881 8.73534C109.881 8.46517 109.867 8.22502 109.867 8.01489V7.99988ZM113.483 8.11996V9.20063C113.483 9.72596 113.483 10.0712 113.497 10.2513C113.497 10.4314 113.584 11.0018 113.714 11.9624C113.859 12.938 114.148 13.7034 114.582 14.2888C115.031 14.8742 115.624 15.1744 116.405 15.1744C117.186 15.1744 117.75 14.8742 118.198 14.2888C118.646 13.6884 118.936 12.998 119.051 12.2025C119.167 11.407 119.239 10.8216 119.268 10.4614C119.297 10.1012 119.312 9.68093 119.312 9.20063V7.03928C119.312 6.4239 119.312 6.01864 119.283 5.7935C119.268 5.56836 119.196 5.07305 119.095 4.33759C118.979 3.58713 118.777 2.92671 118.473 2.37137C118.169 1.80101 117.808 1.44078 117.388 1.29069C116.969 1.1406 116.795 1.06555 116.491 1.06555C115.088 1.06555 114.09 1.786 113.873 3.2269C113.656 4.6678 113.541 5.53834 113.512 5.80851C113.483 6.09369 113.468 6.51395 113.468 7.05429V8.13497L113.483 8.11996Z" fill="black"/>
</g>
<defs>
<clipPath id="clip0_99_1219">
<rect width="123" height="16" fill="white"/>
</clipPath>
</defs>
</svg>
