<svg width="200" height="45" viewBox="0 0 200 45" fill="none" xmlns="http://www.w3.org/2000/svg">
<g clip-path="url(#clip0_73_940)">
<path d="M42.3652 29.8716C42.9207 29.902 43.4666 29.7178 43.8896 29.3574C44.1872 29.0035 44.349 28.5557 44.3462 28.0938C44.3756 27.555 44.3903 26.9452 44.3903 26.2644V13.584C44.3903 13.1947 44.3903 12.8493 44.3903 12.4526C44.3903 12.0559 44.4345 11.7694 44.4492 11.4755L43.3888 11.5343L42.3358 11.5931V10.3001C43.3765 10.3001 44.4443 10.2854 45.5391 10.256C46.6364 10.256 47.7483 10.256 48.8898 10.256C50.5121 10.2144 52.1307 10.4327 53.6838 10.9025C54.8276 11.2432 55.8497 11.9035 56.6294 12.8053C57.3361 13.7037 57.7291 14.8078 57.7487 15.9497C57.7803 16.7594 57.6656 17.5682 57.41 18.3373C57.1091 19.2247 56.6048 20.0297 55.9372 20.6883C55.0831 21.5034 54.0526 22.1117 52.9253 22.4662C51.3159 22.9574 49.6369 23.1832 47.9545 23.1347H47.5127C47.3067 23.1464 47.1001 23.1464 46.8941 23.1347V27.3958C46.8941 27.9174 46.8941 28.3729 46.8941 28.755C46.8858 29.0743 46.8612 29.3931 46.8205 29.71L47.7336 29.6513L48.6247 29.6072C48.934 29.6072 49.2285 29.6072 49.5231 29.5631V30.8855H42.321L42.3652 29.8716ZM46.953 21.9152C47.3212 21.9152 47.6452 21.974 47.9103 21.9887H48.8603C49.9184 22.0022 50.9659 21.7762 51.9237 21.3275C52.8212 20.9109 53.5858 20.2549 54.133 19.432C54.6996 18.5582 54.9872 17.5336 54.9577 16.4933C54.9797 15.6825 54.8291 14.8762 54.5159 14.1277C54.244 13.5012 53.8155 12.9548 53.2714 12.5408C52.6917 12.1264 52.0362 11.8294 51.342 11.6665C50.5322 11.4703 49.7009 11.3765 48.8677 11.3874C48.6131 11.359 48.3554 11.3835 48.1108 11.4594C47.8662 11.5352 47.64 11.6608 47.4464 11.8282C47.1622 12.1686 47.0059 12.5973 47.0046 13.0404C47.0046 13.562 46.9604 14.1718 46.9604 14.8771L46.953 21.9152Z" fill="white"/>
<path d="M61.0404 29.9967C61.2724 30.0232 61.5075 29.9958 61.7272 29.9168C61.9468 29.8378 62.1453 29.7093 62.307 29.5412C62.565 29.1691 62.7083 28.7299 62.7194 28.2776C62.7562 27.7413 62.7783 27.1241 62.7783 26.4189V19.7113C62.7783 19.3954 62.7783 19.0869 62.7783 18.7709C62.7887 18.4456 62.8232 18.1215 62.8814 17.8012L61.8357 17.8453L60.79 17.8893V16.6918H61.7032C62.2984 16.7297 62.895 16.6446 63.4558 16.442C63.745 16.2948 64.0146 16.1121 64.2585 15.8984H65.1127C65.1628 16.2835 65.1923 16.671 65.2011 17.0592C65.2011 17.5147 65.2453 18.0951 65.26 18.8003C65.5919 18.2567 65.9984 17.7621 66.4677 17.331C66.9822 16.8602 67.5627 16.4667 68.1909 16.1629C68.8144 15.8499 69.5033 15.6888 70.2013 15.6927C70.7272 15.6756 71.2444 15.8304 71.6741 16.1335C71.8861 16.2976 72.0537 16.5119 72.1617 16.7569C72.2697 17.0019 72.3147 17.2699 72.2927 17.5367C72.283 17.7357 72.2329 17.9307 72.1454 18.1097C72.0421 18.3432 71.8797 18.5457 71.6741 18.6975C71.4262 18.8754 71.1248 18.9635 70.8199 18.9473C70.6203 18.9445 70.4239 18.8968 70.2454 18.8078C70.0669 18.7187 69.9109 18.5906 69.7889 18.433C69.6658 18.2755 69.5762 18.0945 69.5255 17.9013C69.4749 17.708 69.4643 17.5065 69.4943 17.309C68.9666 17.2966 68.4452 17.426 67.9847 17.6836C67.4347 17.9772 66.937 18.3595 66.5119 18.815C66.0408 19.3262 65.6351 19.8938 65.3042 20.5048V27.7192C65.3042 28.1159 65.3042 28.4539 65.3042 28.7625C65.2942 29.083 65.2597 29.4022 65.2011 29.7175L66.129 29.6734L67.0568 29.6294V30.8342H61.0257L61.0404 29.9967Z" fill="white"/>
<path d="M81.8954 31.3118C80.6037 31.3351 79.3302 31.0048 78.2134 30.3568C77.119 29.7154 76.2262 28.7815 75.636 27.6605C74.983 26.3837 74.6591 24.9647 74.6934 23.5317C74.6858 22.1948 75.0042 20.8761 75.6213 19.6894C76.2215 18.5156 77.1205 17.5199 78.2281 16.8021C79.3824 16.0564 80.7341 15.6726 82.109 15.7001C82.8973 15.6941 83.6803 15.8284 84.4213 16.0968C85.1307 16.3563 85.7761 16.7647 86.3138 17.2943C86.8849 17.871 87.3267 18.5622 87.6099 19.322C87.9435 20.2398 88.1033 21.2113 88.0812 22.1872L77.7274 22.3636C77.7063 23.685 77.8699 25.0029 78.2134 26.2794C78.4658 27.2845 79.0117 28.1922 79.7819 28.8874C80.5705 29.5258 81.5656 29.855 82.5803 29.8131C83.2175 29.8102 83.8497 29.7009 84.4507 29.4899C85.0805 29.2798 85.6779 28.9831 86.2255 28.6082C86.7354 28.2792 87.1839 27.864 87.551 27.3814L88.2874 27.9618C87.7961 28.7459 87.1435 29.417 86.3727 29.9307C85.6709 30.4031 84.8977 30.7603 84.0825 30.9886C83.371 31.1924 82.6356 31.3011 81.8954 31.3118ZM77.8378 21.1293H85.3344C85.3354 20.4374 85.2336 19.7491 85.0325 19.0869C84.8466 18.4663 84.4954 17.9077 84.0163 17.4707C83.4988 17.0365 82.8359 16.8134 82.1605 16.8462C81.1214 16.809 80.1073 17.169 79.3254 17.8527C78.4662 18.7415 77.9408 19.8988 77.8378 21.1293Z" fill="white"/>
<path d="M91.9547 30.8415V29.9966C92.1867 30.0231 92.4218 29.9957 92.6415 29.9167C92.8612 29.8377 93.0596 29.7092 93.2213 29.5411C93.4793 29.169 93.6226 28.7298 93.6337 28.2775C93.6705 27.7412 93.6926 27.124 93.6926 26.4188V19.7259C93.6926 19.41 93.6926 19.1014 93.6926 18.7855C93.703 18.4602 93.7375 18.1361 93.7957 17.8158L92.75 17.8745L91.7043 17.9333V16.7064C92.3594 16.7177 93.0143 16.6784 93.6632 16.5889C94.0047 16.5395 94.3372 16.4405 94.65 16.295C94.8422 16.1905 95.0203 16.0621 95.1802 15.913H96.027C96.0511 16.0687 96.0659 16.2257 96.0712 16.3832C96.0712 16.5595 96.0712 16.7505 96.1154 16.9709C96.1279 17.2156 96.1279 17.4608 96.1154 17.7056C96.5601 17.332 97.0384 17 97.544 16.7138C98.065 16.4089 98.6182 16.1626 99.1936 15.9791C99.749 15.8058 100.327 15.7167 100.909 15.7146C101.616 15.655 102.327 15.7691 102.979 16.0471C103.631 16.325 104.205 16.7583 104.65 17.3089C105.431 18.3815 105.829 20.0345 105.829 22.2899V27.7412C105.829 28.1379 105.829 28.4758 105.829 28.7844C105.821 29.1047 105.789 29.424 105.733 29.7395L106.653 29.6954C106.963 29.6954 107.272 29.6807 107.581 29.6513V30.8562H101.631V29.9966C101.863 30.0231 102.098 29.9957 102.318 29.9167C102.537 29.8377 102.736 29.7092 102.898 29.5411C103.159 29.1706 103.302 28.7304 103.31 28.2775C103.31 27.7412 103.369 27.124 103.369 26.4188V22.312C103.432 20.9869 103.142 19.6689 102.529 18.4917C102.263 18.069 101.885 17.7277 101.437 17.5048C100.989 17.282 100.488 17.1862 99.9889 17.228C99.2631 17.2538 98.5527 17.4448 97.9122 17.7864C97.2634 18.1205 96.6877 18.58 96.2185 19.1382C96.2308 19.3143 96.2308 19.491 96.2185 19.6671V20.2843V27.7632C96.2185 28.1599 96.2185 28.4979 96.2185 28.8064C96.2085 29.1269 96.174 29.4462 96.1154 29.7615L97.0433 29.7174L97.9711 29.6733V30.8782L91.9547 30.8415Z" fill="white"/>
<path d="M117.574 31.3115C116.687 31.3255 115.803 31.1914 114.96 30.9147C114.296 30.6974 113.663 30.3962 113.075 30.0184L113.193 31.047H111.956L111.779 25.9998H112.692C112.738 27.1205 113.216 28.1801 114.028 28.9566C114.839 29.7331 115.92 30.1663 117.044 30.1654C117.546 30.164 118.043 30.0796 118.517 29.9156C118.982 29.773 119.407 29.5211 119.754 29.1809C119.921 29.0074 120.051 28.8022 120.137 28.5776C120.223 28.353 120.263 28.1135 120.255 27.8732C120.272 27.375 120.098 26.889 119.769 26.5141C119.404 26.1206 118.969 25.7969 118.488 25.559C117.931 25.2841 117.361 25.0388 116.779 24.8243C116.197 24.5892 115.608 24.3468 115.019 24.0896C114.443 23.8446 113.895 23.5392 113.384 23.1787C112.897 22.8421 112.49 22.4033 112.191 21.893C111.881 21.3156 111.729 20.667 111.749 20.0122C111.759 19.5523 111.839 19.0966 111.985 18.6604C112.16 18.1497 112.43 17.6762 112.78 17.2646C113.202 16.7934 113.726 16.424 114.312 16.1846C115.096 15.8747 115.936 15.7296 116.779 15.7585C117.377 15.7684 117.972 15.8573 118.546 16.023C119.238 16.2211 119.88 16.5615 120.432 17.0221L120.373 15.9054H121.661V21.0481H120.719C120.676 20.365 120.517 19.6941 120.248 19.0645C119.982 18.4442 119.568 17.899 119.04 17.4776C118.445 17.0392 117.717 16.8187 116.978 16.8531C116.215 16.807 115.462 17.0453 114.864 17.5217C114.636 17.7125 114.451 17.9506 114.324 18.2195C114.197 18.4885 114.13 18.7818 114.128 19.0792C114.119 19.3568 114.165 19.6333 114.264 19.8931C114.362 20.1528 114.511 20.3905 114.702 20.5926C115.128 21.0241 115.627 21.3773 116.175 21.6358C116.779 21.9297 117.427 22.2089 118.112 22.4881C118.797 22.7672 119.585 23.1419 120.321 23.5093C120.988 23.8512 121.577 24.3263 122.052 24.9051C122.525 25.5232 122.765 26.288 122.729 27.0651C122.767 27.9354 122.507 28.7927 121.993 29.4968C121.498 30.1383 120.835 30.6314 120.078 30.9221C119.276 31.2113 118.426 31.3435 117.574 31.3115Z" fill="white"/>
<path d="M136.463 30.8414C136.407 30.55 136.367 30.2557 136.345 29.9598C136.345 29.71 136.316 29.4455 136.257 29.1664C135.626 29.8051 134.895 30.3362 134.092 30.7386C133.33 31.1177 132.49 31.314 131.639 31.3116C130.441 31.4074 129.251 31.045 128.311 30.2978C127.963 29.985 127.687 29.6016 127.5 29.1732C127.313 28.7449 127.221 28.2816 127.228 27.8146C127.21 26.9626 127.506 26.1336 128.061 25.4857C128.674 24.7968 129.427 24.2459 130.27 23.8694C131.209 23.4352 132.198 23.1193 133.215 22.929C134.219 22.7302 135.241 22.6367 136.264 22.6498V20.8352C136.267 20.1846 136.208 19.5351 136.087 18.8957C135.991 18.3448 135.735 17.8342 135.351 17.4263C134.825 16.9883 134.149 16.7698 133.466 16.8166C132.869 16.8031 132.275 16.9105 131.72 17.1325C131.142 17.3467 130.671 17.7795 130.41 18.3373C130.559 18.4878 130.666 18.6755 130.719 18.881C130.763 19.0689 130.788 19.261 130.793 19.454C130.775 19.7461 130.672 20.0269 130.498 20.2622C130.382 20.4205 130.224 20.544 130.042 20.6191C129.861 20.6942 129.662 20.7182 129.467 20.6883C129.287 20.6994 129.107 20.6664 128.943 20.5921C128.778 20.5179 128.635 20.4046 128.524 20.2622C128.307 19.9691 128.193 19.6127 128.2 19.2483C128.2 18.5774 128.465 17.9333 128.937 17.4557C129.52 16.8795 130.232 16.449 131.014 16.1994C131.978 15.8715 132.992 15.7124 134.011 15.7292C134.683 15.6688 135.36 15.7545 135.995 15.9802C136.631 16.206 137.21 16.5665 137.693 17.0369C138.473 17.9039 138.854 19.2777 138.834 21.1585V23.3625C138.834 24.0971 138.834 24.8318 138.834 25.5665C138.834 26.3011 138.834 27.0358 138.834 27.7705C138.834 28.0864 138.834 28.4023 138.834 28.7109C138.834 29.0194 138.79 29.3794 138.746 29.7688L139.791 29.71L140.837 29.6512V30.8855L136.463 30.8414ZM136.198 23.649C135.49 23.6744 134.786 23.7579 134.092 23.8988C133.391 24.0334 132.711 24.2555 132.067 24.56C131.494 24.8313 130.991 25.2281 130.594 25.7208C130.203 26.2171 130.009 26.8395 130.049 27.4693C130.047 27.7769 130.112 28.0813 130.239 28.3616C130.366 28.6419 130.552 28.8913 130.785 29.0929C131.227 29.4585 131.787 29.6517 132.361 29.6366C133.087 29.656 133.807 29.4997 134.46 29.1811C135.112 28.8414 135.712 28.411 136.242 27.9027C136.23 27.6702 136.23 27.4373 136.242 27.2048V26.4113C136.242 26.3085 136.242 25.9999 136.242 25.471C136.242 24.942 136.198 24.3396 136.198 23.649Z" fill="white"/>
<path d="M144.225 29.9967C144.457 30.0232 144.692 29.9959 144.911 29.9168C145.131 29.8378 145.33 29.7093 145.491 29.5412C145.752 29.1707 145.896 28.7305 145.904 28.2776C145.94 27.7413 145.963 27.1242 145.963 26.4189V12.5336C145.963 12.2251 145.963 11.9238 145.963 11.6447C145.963 11.3655 145.999 11.0202 146.036 10.6308L144.991 10.6896L143.945 10.7484V9.51414C144.619 9.52741 145.294 9.48811 145.963 9.39659C146.337 9.34553 146.703 9.24677 147.052 9.10272C147.264 9.00777 147.458 8.8787 147.627 8.7207H148.481V27.7633C148.481 28.1601 148.481 28.498 148.481 28.8066C148.459 29.1268 148.419 29.4456 148.363 29.7616L149.284 29.7176L150.212 29.6735V30.8783H144.21L144.225 29.9967Z" fill="white"/>
<path d="M154.873 29.9966C155.105 30.0231 155.34 29.9958 155.56 29.9168C155.78 29.8377 155.978 29.7092 156.14 29.5411C156.398 29.169 156.541 28.7298 156.552 28.2775C156.552 27.7412 156.611 27.1241 156.611 26.4188V19.7113C156.611 19.3954 156.611 19.1015 156.611 18.815C156.611 18.5284 156.663 18.1978 156.7 17.8011L155.654 17.8599L154.608 17.9187V16.6918C155.278 16.7017 155.947 16.6624 156.611 16.5742C156.981 16.5227 157.342 16.424 157.686 16.2803C157.896 16.1828 158.09 16.054 158.261 15.8983H159.108V27.7486C159.108 28.1453 159.108 28.4832 159.108 28.7918C159.098 29.1123 159.063 29.4316 159.005 29.7469L159.932 29.7028L160.86 29.6587V30.8635H154.873V29.9966ZM157.745 12.967C157.538 12.9675 157.333 12.9231 157.145 12.8369C156.957 12.7506 156.79 12.6245 156.655 12.4674C156.5 12.304 156.378 12.1114 156.297 11.9009C156.216 11.6903 156.178 11.4659 156.184 11.2405C156.174 10.7765 156.349 10.3274 156.67 9.99158C156.807 9.83216 156.976 9.7038 157.167 9.61509C157.357 9.52639 157.564 9.47941 157.775 9.47732C157.989 9.47316 158.202 9.51723 158.397 9.60626C158.592 9.69529 158.764 9.82697 158.901 9.99158C159.208 10.3341 159.372 10.7812 159.358 11.2405C159.364 11.4671 159.323 11.6925 159.24 11.9032C159.156 12.114 159.031 12.3059 158.872 12.4674C158.731 12.627 158.558 12.7542 158.364 12.8405C158.169 12.9267 157.958 12.9699 157.745 12.967Z" fill="white"/>
<path d="M165.492 30.8415V29.9966C165.724 30.0231 165.959 29.9957 166.179 29.9167C166.399 29.8377 166.597 29.7092 166.759 29.5411C167.017 29.169 167.16 28.7298 167.171 28.2775C167.208 27.7412 167.23 27.124 167.23 26.4188V19.7259C167.23 19.41 167.23 19.1014 167.23 18.7855C167.24 18.4602 167.275 18.1361 167.333 17.8158L166.287 17.8745L165.242 17.9333V16.7064C165.897 16.7177 166.552 16.6784 167.201 16.5889C167.542 16.5395 167.875 16.4405 168.187 16.295C168.38 16.1905 168.558 16.0621 168.718 15.913H169.564C169.588 16.0687 169.603 16.2257 169.609 16.3832C169.609 16.5595 169.609 16.7505 169.653 16.9709C169.665 17.2156 169.665 17.4608 169.653 17.7056C170.097 17.332 170.576 17 171.081 16.7138C171.602 16.4089 172.156 16.1626 172.731 15.9791C173.286 15.8058 173.865 15.7167 174.447 15.7146C175.153 15.655 175.864 15.7691 176.516 16.0471C177.168 16.325 177.742 16.7583 178.188 17.3089C178.968 18.3815 179.366 20.0345 179.366 22.2899V27.7412C179.366 28.1379 179.366 28.4758 179.366 28.7844C179.352 29.1046 179.318 29.4237 179.263 29.7395L180.183 29.6954C180.493 29.6954 180.802 29.6807 181.111 29.6513V30.8562H175.11V29.9966C175.342 30.0231 175.577 29.9957 175.796 29.9167C176.016 29.8377 176.214 29.7092 176.376 29.5411C176.637 29.1706 176.781 28.7304 176.789 28.2775C176.789 27.7412 176.847 27.124 176.847 26.4188V22.312C176.91 20.9869 176.621 19.6689 176.008 18.4917C175.741 18.069 175.363 17.7277 174.915 17.5048C174.467 17.282 173.966 17.1862 173.467 17.228C172.741 17.2538 172.031 17.4448 171.391 17.7864C170.742 18.1205 170.166 18.58 169.697 19.1382C169.709 19.3143 169.709 19.491 169.697 19.6671V20.2843V27.7632C169.697 28.1599 169.697 28.4979 169.697 28.8064C169.687 29.1269 169.653 29.4462 169.594 29.7615L170.522 29.7174L171.45 29.6733V30.8782L165.492 30.8415Z" fill="white"/>
<path d="M185.434 30.8416V29.9967C185.664 30.0243 185.897 29.9974 186.114 29.9183C186.332 29.8392 186.528 29.71 186.686 29.5412C186.938 29.1675 187.077 28.7284 187.083 28.2776C187.083 27.7413 187.142 27.1242 187.142 26.4189V12.5336C187.142 12.2251 187.142 11.9238 187.142 11.6447C187.142 11.3655 187.142 11.0202 187.216 10.6308L186.17 10.6896L185.125 10.7484V9.51414C185.794 9.52804 186.464 9.48874 187.128 9.39659C187.497 9.34608 187.859 9.24728 188.203 9.10272C188.414 9.00777 188.608 8.8787 188.777 8.7207H189.631V22.5986H190.883L194.477 18.8445C194.808 18.5138 195.11 18.2126 195.39 17.9482C195.64 17.7016 195.914 17.4802 196.207 17.287L194.212 17.3751V16.207H199.565V17.0812C198.9 17.1405 198.259 17.357 197.695 17.7131C197.128 18.0702 196.596 18.4785 196.104 18.9326C195.626 19.3808 195.213 19.7922 194.86 20.1668L192.562 22.5692C192.934 22.7326 193.273 22.9616 193.564 23.2451C193.836 23.5243 194.109 23.8255 194.388 24.1561L196.473 26.8303C196.576 26.9479 196.745 27.1682 196.988 27.5062C197.231 27.8441 197.526 28.1968 197.872 28.5862C198.194 28.9611 198.56 29.2965 198.962 29.5853C199.268 29.831 199.644 29.9748 200.037 29.9967V30.8783H197.356C197.049 30.8586 196.751 30.772 196.481 30.6248C196.211 30.4776 195.977 30.2732 195.795 30.0261C195.309 29.4604 194.786 28.8213 194.241 28.116C193.696 27.4107 193.269 26.7715 192.872 26.1985C192.474 25.6254 192.135 25.1185 191.782 24.6851C191.521 24.3277 191.231 23.9934 190.913 23.6859L189.712 23.7447V27.7633C189.712 28.1601 189.712 28.498 189.712 28.8066C189.699 29.1268 189.664 29.4458 189.609 29.7616L190.544 29.7176C190.861 29.7176 191.178 29.7176 191.487 29.6735V30.8783L185.434 30.8416Z" fill="white"/>
<path d="M28.0054 2.16722C27.8819 2.053 27.737 1.96434 27.579 1.90633C27.421 1.84833 27.2531 1.82213 27.0848 1.82927C26.7738 1.82865 26.4749 1.95002 26.2527 2.16722C26.1365 2.27645 26.0444 2.40867 25.9823 2.5554C25.9201 2.70214 25.8894 2.86017 25.8919 3.01944V26.5289C25.9122 27.711 25.6037 28.8757 25.0008 29.8936C24.421 30.8763 23.5999 31.6955 22.6149 32.274C21.6394 32.8606 20.521 33.1681 19.382 33.1629C18.2191 33.174 17.0755 32.8665 16.0756 32.274C15.0939 31.6912 14.2738 30.873 13.6897 29.8936C13.0899 28.8744 12.7818 27.7106 12.7986 26.5289V16.6843C12.8091 16.372 12.6952 16.0683 12.4819 15.8394C12.3742 15.7262 12.2438 15.6369 12.0991 15.5774C11.9545 15.5179 11.7989 15.4895 11.6425 15.4941C11.4804 15.488 11.3188 15.5155 11.1679 15.575C11.0171 15.6344 10.8803 15.7245 10.7661 15.8394C10.5556 16.0699 10.4422 16.3725 10.4495 16.6843V26.4995C10.4325 28.0968 10.8444 29.6696 11.6425 31.0544C12.4186 32.3891 13.5206 33.5061 14.8458 34.3017C16.2182 35.1116 17.7877 35.5285 19.382 35.5065C20.9808 35.5266 22.5546 35.11 23.933 34.3017C25.2659 33.5109 26.3737 32.393 27.1511 31.0544C27.9526 29.6709 28.3647 28.0972 28.3441 26.4995V2.99004C28.3446 2.83741 28.315 2.68617 28.2569 2.54498C28.1987 2.40378 28.1133 2.27541 28.0054 2.16722Z" fill="white"/>
<path d="M19.4189 11.1008C18.647 9.76303 17.5441 8.64501 16.2156 7.85358C14.835 7.05925 13.2693 6.64111 11.6756 6.64111C10.0819 6.64111 8.51629 7.05925 7.13573 7.85358C5.79959 8.64013 4.69078 9.75898 3.91763 11.1008C3.11294 12.4833 2.69819 14.0572 2.71731 15.6558V28.1011C2.71334 28.2592 2.74202 28.4165 2.80156 28.5631C2.8611 28.7097 2.95023 28.8425 3.06342 28.9533C3.18403 29.0694 3.3274 29.1594 3.48454 29.2175C3.64169 29.2757 3.80921 29.3008 3.97655 29.2913C4.13084 29.2932 4.28396 29.2643 4.42687 29.2062C4.56979 29.1482 4.69961 29.0622 4.80869 28.9533C4.92716 28.8458 5.02078 28.7139 5.08309 28.5668C5.1454 28.4196 5.17488 28.2608 5.16952 28.1011V15.6558C5.14821 14.4754 5.45128 13.3117 6.04585 12.291C6.62567 11.3083 7.44679 10.4891 8.43179 9.91067C9.40999 9.3242 10.5307 9.01673 11.672 9.02173C12.8325 9.01161 13.9735 9.31906 14.9711 9.91067C15.9561 10.4891 16.7772 11.3083 17.357 12.291C17.9599 13.3089 18.2683 14.4736 18.2481 15.6558V25.4489C18.2394 25.6084 18.2629 25.768 18.3173 25.9182C18.3717 26.0684 18.4558 26.2061 18.5647 26.3232C18.6718 26.4372 18.8022 26.527 18.947 26.5865C19.0918 26.6461 19.2477 26.674 19.4042 26.6685C19.5653 26.6754 19.726 26.6482 19.8758 26.5887C20.0256 26.5292 20.161 26.4387 20.2732 26.3232C20.4864 26.0943 20.6003 25.7906 20.5898 25.4783V15.6558C20.6183 14.0599 20.2137 12.4861 19.4189 11.1008Z" fill="white"/>
<path d="M3.93973 27.7412C3.16084 27.7427 2.39985 27.9744 1.75293 28.4072C1.10601 28.84 0.602173 29.4543 0.30511 30.1727C0.00804797 30.891 -0.0689188 31.681 0.0839284 32.443C0.236776 33.205 0.612581 33.9046 1.16386 34.4535C1.71514 35.0025 2.41714 35.3761 3.18117 35.5272C3.94521 35.6783 4.73699 35.6 5.45646 35.3023C6.17592 35.0046 6.79081 34.5008 7.22339 33.8546C7.65598 33.2084 7.88685 32.4488 7.88685 31.6717C7.8849 30.6286 7.46819 29.6289 6.72817 28.892C5.98815 28.1551 4.9853 27.7412 3.93973 27.7412ZM6.10474 31.6717C6.10474 32.0989 5.97779 32.5165 5.73989 32.8717C5.50199 33.2269 5.16384 33.5037 4.76823 33.6672C4.37263 33.8307 3.93732 33.8735 3.51735 33.7901C3.09738 33.7068 2.7116 33.5011 2.40881 33.199C2.10603 32.8969 1.89984 32.5121 1.8163 32.0931C1.73276 31.6741 1.77564 31.2398 1.9395 30.8451C2.10337 30.4505 2.38086 30.1131 2.7369 29.8758C3.09294 29.6384 3.51153 29.5118 3.93973 29.5118C4.51394 29.5118 5.06462 29.7393 5.47064 30.1444C5.87666 30.5495 6.10474 31.0988 6.10474 31.6717Z" fill="white"/>
<path d="M32.2691 4.68729L27.9906 0.330708C27.7785 0.122522 27.4929 0.00585938 27.1953 0.00585938C26.8978 0.00585938 26.6121 0.122522 26.4 0.330708L21.9816 4.73873C21.7742 4.95249 21.6582 5.23833 21.6582 5.53584C21.6582 5.83334 21.7742 6.11921 21.9816 6.33297C22.1959 6.53989 22.4824 6.65557 22.7806 6.65557C23.0788 6.65557 23.3653 6.53989 23.5796 6.33297L27.188 2.72574L30.6712 6.29622C30.8851 6.50097 31.17 6.61529 31.4665 6.61529C31.7629 6.61529 32.0479 6.50097 32.2618 6.29622C32.3672 6.19261 32.4507 6.06908 32.5076 5.93283C32.5645 5.79659 32.5936 5.65038 32.5932 5.50279C32.5963 5.35219 32.5692 5.20246 32.5136 5.06243C32.458 4.9224 32.3748 4.79486 32.2691 4.68729Z" fill="white"/>
</g>
<defs>
<clipPath id="clip0_73_940">
<rect width="200" height="45" fill="white"/>
</clipPath>
</defs>
</svg>
