<svg width="200" height="46" viewBox="0 0 200 46" fill="none" xmlns="http://www.w3.org/2000/svg">
<g clip-path="url(#clip0_73_304)">
<path d="M42.3652 30.3716C42.9207 30.402 43.4666 30.2178 43.8896 29.8574C44.1872 29.5035 44.349 29.0557 44.3462 28.5938C44.3756 28.055 44.3903 27.4452 44.3903 26.7644V14.084C44.3903 13.6947 44.3903 13.3493 44.3903 12.9526C44.3903 12.5559 44.4345 12.2694 44.4492 11.9755L43.3888 12.0343L42.3358 12.0931V10.8001C43.3765 10.8001 44.4443 10.7854 45.5391 10.756C46.6364 10.756 47.7483 10.756 48.8898 10.756C50.5121 10.7144 52.1307 10.9327 53.6838 11.4025C54.8276 11.7432 55.8497 12.4035 56.6294 13.3053C57.3361 14.2037 57.7291 15.3078 57.7487 16.4497C57.7803 17.2594 57.6656 18.0682 57.41 18.8373C57.1091 19.7247 56.6048 20.5297 55.9372 21.1883C55.0831 22.0034 54.0526 22.6117 52.9253 22.9662C51.3159 23.4574 49.6369 23.6832 47.9545 23.6347H47.5127C47.3067 23.6464 47.1001 23.6464 46.8941 23.6347V27.8958C46.8941 28.4174 46.8941 28.8729 46.8941 29.255C46.8858 29.5743 46.8612 29.8931 46.8205 30.21L47.7336 30.1513L48.6247 30.1072C48.934 30.1072 49.2285 30.1072 49.5231 30.0631V31.3855H42.321L42.3652 30.3716ZM46.953 22.4152C47.3212 22.4152 47.6452 22.474 47.9103 22.4887H48.8603C49.9184 22.5022 50.9659 22.2762 51.9237 21.8275C52.8212 21.4109 53.5858 20.7549 54.133 19.932C54.6996 19.0582 54.9872 18.0336 54.9577 16.9933C54.9797 16.1825 54.8291 15.3762 54.5159 14.6277C54.244 14.0012 53.8155 13.4548 53.2714 13.0408C52.6917 12.6264 52.0362 12.3294 51.342 12.1665C50.5322 11.9703 49.7009 11.8765 48.8677 11.8874C48.6131 11.859 48.3554 11.8835 48.1108 11.9594C47.8662 12.0352 47.64 12.1608 47.4464 12.3282C47.1622 12.6686 47.0059 13.0973 47.0046 13.5404C47.0046 14.062 46.9604 14.6718 46.9604 15.3771L46.953 22.4152Z" fill="#1D1D1B"/>
<path d="M61.0404 30.4965C61.2724 30.5229 61.5075 30.4956 61.7272 30.4166C61.9468 30.3376 62.1453 30.209 62.307 30.041C62.565 29.6688 62.7083 29.2296 62.7194 28.7773C62.7562 28.241 62.7783 27.6239 62.7783 26.9186V20.2111C62.7783 19.8952 62.7783 19.5866 62.7783 19.2707C62.7887 18.9454 62.8232 18.6212 62.8814 18.3009L61.8357 18.345L60.79 18.3891V17.1916H61.7032C62.2984 17.2294 62.895 17.1444 63.4558 16.9418C63.745 16.7945 64.0146 16.6119 64.2585 16.3981H65.1127C65.1628 16.7832 65.1923 17.1707 65.2011 17.5589C65.2011 18.0144 65.2453 18.5948 65.26 19.3001C65.5919 18.7565 65.9984 18.2619 66.4677 17.8308C66.9822 17.36 67.5627 16.9664 68.1909 16.6626C68.8144 16.3497 69.5033 16.1886 70.2013 16.1924C70.7272 16.1754 71.2444 16.3302 71.6741 16.6332C71.8861 16.7973 72.0537 17.0116 72.1617 17.2566C72.2697 17.5017 72.3147 17.7697 72.2927 18.0365C72.283 18.2355 72.2329 18.4304 72.1454 18.6095C72.0421 18.8429 71.8797 19.0455 71.6741 19.1972C71.4262 19.3752 71.1248 19.4633 70.8199 19.447C70.6203 19.4443 70.4239 19.3966 70.2454 19.3075C70.0669 19.2185 69.9109 19.0904 69.7889 18.9328C69.6658 18.7752 69.5762 18.5943 69.5255 18.401C69.4749 18.2078 69.4643 18.0062 69.4943 17.8087C68.9666 17.7964 68.4452 17.9258 67.9847 18.1834C67.4347 18.477 66.937 18.8593 66.5119 19.3148C66.0408 19.826 65.6351 20.3936 65.3042 21.0045V28.219C65.3042 28.6157 65.3042 28.9536 65.3042 29.2622C65.2942 29.5827 65.2597 29.902 65.2011 30.2173L66.129 30.1732L67.0568 30.1291V31.334H61.0257L61.0404 30.4965Z" fill="#1D1D1B"/>
<path d="M81.8955 31.8116C80.6038 31.8349 79.3303 31.5046 78.2135 30.8565C77.1191 30.2152 76.2264 29.2813 75.6361 28.1603C74.9832 26.8834 74.6592 25.4645 74.6935 24.0315C74.6859 22.6946 75.0043 21.3759 75.6214 20.1891C76.2216 19.0154 77.1206 18.0197 78.2282 17.3019C79.3825 16.5561 80.7342 16.1723 82.1091 16.1999C82.8974 16.1939 83.6804 16.3282 84.4214 16.5966C85.1309 16.856 85.7763 17.2644 86.314 17.7941C86.8851 18.3708 87.3268 19.0619 87.61 19.8218C87.9436 20.7395 88.1034 21.7111 88.0813 22.687L77.7275 22.8633C77.7064 24.1848 77.87 25.5027 78.2135 26.7791C78.4659 27.7843 79.0118 28.692 79.7821 29.3872C80.5707 30.0255 81.5657 30.3547 82.5804 30.3129C83.2176 30.3099 83.8498 30.2006 84.4509 29.9896C85.0807 29.7796 85.678 29.4828 86.2256 29.108C86.7355 28.7789 87.184 28.3638 87.5511 27.8811L88.2875 28.4615C87.7962 29.2456 87.1436 29.9167 86.3729 30.4304C85.671 30.9029 84.8978 31.26 84.0827 31.4883C83.3712 31.6922 82.6357 31.8009 81.8955 31.8116ZM77.8379 21.6291H85.3345C85.3355 20.9371 85.2338 20.2489 85.0326 19.5867C84.8468 18.9661 84.4955 18.4075 84.0164 17.9704C83.4989 17.5362 82.836 17.3131 82.1606 17.346C81.1215 17.3088 80.1075 17.6688 79.3255 18.3524C78.4663 19.2413 77.9409 20.3986 77.8379 21.6291Z" fill="#1D1D1B"/>
<path d="M91.9547 31.3415V30.4966C92.1867 30.5231 92.4218 30.4957 92.6415 30.4167C92.8612 30.3377 93.0596 30.2092 93.2213 30.0411C93.4793 29.669 93.6226 29.2298 93.6337 28.7775C93.6705 28.2412 93.6926 27.624 93.6926 26.9188V20.2259C93.6926 19.91 93.6926 19.6014 93.6926 19.2855C93.703 18.9602 93.7375 18.6361 93.7957 18.3158L92.75 18.3745L91.7043 18.4333V17.2064C92.3594 17.2177 93.0143 17.1784 93.6632 17.0889C94.0047 17.0395 94.3372 16.9405 94.65 16.795C94.8422 16.6905 95.0203 16.5621 95.1802 16.413H96.027C96.0511 16.5687 96.0659 16.7257 96.0712 16.8832C96.0712 17.0595 96.0712 17.2505 96.1154 17.4709C96.1279 17.7156 96.1279 17.9608 96.1154 18.2056C96.5601 17.832 97.0384 17.5 97.544 17.2138C98.065 16.9089 98.6182 16.6626 99.1936 16.4791C99.749 16.3058 100.327 16.2167 100.909 16.2146C101.616 16.155 102.327 16.2691 102.979 16.5471C103.631 16.825 104.205 17.2583 104.65 17.8089C105.431 18.8815 105.829 20.5345 105.829 22.7899V28.2412C105.829 28.6379 105.829 28.9758 105.829 29.2844C105.821 29.6047 105.789 29.924 105.733 30.2395L106.653 30.1954C106.963 30.1954 107.272 30.1807 107.581 30.1513V31.3562H101.631V30.4966C101.863 30.5231 102.098 30.4957 102.318 30.4167C102.537 30.3377 102.736 30.2092 102.898 30.0411C103.159 29.6706 103.302 29.2304 103.31 28.7775C103.31 28.2412 103.369 27.624 103.369 26.9188V22.812C103.432 21.4869 103.142 20.1689 102.529 18.9917C102.263 18.569 101.885 18.2277 101.437 18.0048C100.989 17.782 100.488 17.6862 99.9889 17.728C99.2631 17.7538 98.5527 17.9448 97.9122 18.2864C97.2634 18.6205 96.6877 19.08 96.2185 19.6382C96.2308 19.8143 96.2308 19.991 96.2185 20.1671V20.7843V28.2632C96.2185 28.6599 96.2185 28.9979 96.2185 29.3064C96.2085 29.6269 96.174 29.9462 96.1154 30.2615L97.0433 30.2174L97.9711 30.1733V31.3782L91.9547 31.3415Z" fill="#1D1D1B"/>
<path d="M117.574 31.8117C116.687 31.8258 115.803 31.6917 114.96 31.415C114.296 31.1976 113.662 30.8964 113.075 30.5187L113.193 31.5472H111.956L111.779 26.5H112.692C112.738 27.6207 113.216 28.6803 114.027 29.4568C114.839 30.2334 115.92 30.6665 117.044 30.6656C117.545 30.6643 118.043 30.5799 118.517 30.4158C118.982 30.2733 119.406 30.0213 119.754 29.6812C119.921 29.5076 120.051 29.3025 120.137 29.0778C120.223 28.8532 120.263 28.6137 120.255 28.3734C120.272 27.8752 120.098 27.3893 119.769 27.0143C119.403 26.6208 118.969 26.2972 118.487 26.0592C117.931 25.7843 117.361 25.5391 116.779 25.3246C116.197 25.0895 115.608 24.847 115.019 24.5899C114.443 24.3448 113.895 24.0395 113.384 23.6789C112.897 23.3424 112.49 22.9035 112.191 22.3932C111.881 21.8159 111.729 21.1672 111.749 20.5125C111.759 20.0526 111.838 19.5968 111.985 19.1607C112.16 18.6499 112.43 18.1764 112.78 17.7648C113.202 17.2936 113.726 16.9243 114.312 16.6848C115.096 16.3749 115.936 16.2298 116.779 16.2587C117.377 16.2686 117.972 16.3576 118.546 16.5232C119.238 16.7214 119.88 17.0617 120.432 17.5224L120.373 16.4057H121.661V21.5484H120.719C120.676 20.8652 120.516 20.1944 120.247 19.5647C119.982 18.9444 119.567 18.3993 119.04 17.9779C118.445 17.5395 117.717 17.319 116.978 17.3534C116.215 17.3073 115.461 17.5455 114.864 18.0219C114.636 18.2127 114.451 18.4508 114.324 18.7198C114.197 18.9887 114.13 19.2821 114.128 19.5795C114.119 19.857 114.165 20.1336 114.264 20.3933C114.362 20.653 114.511 20.8908 114.702 21.0929C115.128 21.5244 115.626 21.8775 116.175 22.1361C116.779 22.43 117.427 22.7091 118.112 22.9883C118.797 23.2675 119.585 23.6422 120.321 24.0095C120.988 24.3514 121.577 24.8266 122.052 25.4054C122.525 26.0234 122.765 26.7882 122.729 27.5653C122.766 28.4357 122.507 29.293 121.993 29.9971C121.498 30.6385 120.835 31.1316 120.078 31.4223C119.276 31.7116 118.426 31.8438 117.574 31.8117Z" fill="#1D1D1B"/>
<path d="M136.463 31.3414C136.407 31.05 136.367 30.7557 136.345 30.4598C136.345 30.21 136.316 29.9455 136.257 29.6664C135.626 30.3051 134.895 30.8362 134.092 31.2386C133.33 31.6177 132.49 31.814 131.639 31.8116C130.441 31.9074 129.251 31.545 128.311 30.7978C127.963 30.485 127.687 30.1016 127.5 29.6732C127.313 29.2449 127.221 28.7816 127.228 28.3146C127.21 27.4626 127.506 26.6336 128.061 25.9857C128.674 25.2968 129.427 24.7459 130.27 24.3694C131.209 23.9352 132.198 23.6193 133.215 23.429C134.219 23.2302 135.241 23.1367 136.264 23.1498V21.3352C136.267 20.6846 136.208 20.0351 136.087 19.3957C135.991 18.8448 135.735 18.3342 135.351 17.9263C134.825 17.4883 134.149 17.2698 133.466 17.3166C132.869 17.3031 132.275 17.4105 131.72 17.6325C131.142 17.8467 130.671 18.2795 130.41 18.8373C130.559 18.9878 130.666 19.1755 130.719 19.381C130.763 19.5689 130.788 19.761 130.793 19.954C130.775 20.2461 130.672 20.5269 130.498 20.7622C130.382 20.9205 130.224 21.044 130.042 21.1191C129.861 21.1942 129.662 21.2182 129.467 21.1883C129.287 21.1994 129.107 21.1664 128.943 21.0921C128.778 21.0179 128.635 20.9046 128.524 20.7622C128.307 20.4691 128.193 20.1127 128.2 19.7483C128.2 19.0774 128.465 18.4333 128.937 17.9557C129.52 17.3795 130.232 16.949 131.014 16.6994C131.978 16.3715 132.992 16.2124 134.011 16.2292C134.683 16.1688 135.36 16.2545 135.995 16.4802C136.631 16.706 137.21 17.0665 137.693 17.5369C138.473 18.4039 138.854 19.7777 138.834 21.6585V23.8625C138.834 24.5971 138.834 25.3318 138.834 26.0665C138.834 26.8011 138.834 27.5358 138.834 28.2705C138.834 28.5864 138.834 28.9023 138.834 29.2109C138.834 29.5194 138.79 29.8794 138.746 30.2688L139.791 30.21L140.837 30.1512V31.3855L136.463 31.3414ZM136.198 24.149C135.49 24.1744 134.786 24.2579 134.092 24.3988C133.391 24.5334 132.711 24.7555 132.067 25.06C131.494 25.3313 130.991 25.7281 130.594 26.2208C130.203 26.7171 130.009 27.3395 130.049 27.9693C130.047 28.2769 130.112 28.5813 130.239 28.8616C130.366 29.1419 130.552 29.3913 130.785 29.5929C131.227 29.9585 131.787 30.1517 132.361 30.1366C133.087 30.156 133.807 29.9997 134.46 29.6811C135.112 29.3414 135.712 28.911 136.242 28.4027C136.23 28.1702 136.23 27.9373 136.242 27.7048V26.9113C136.242 26.8085 136.242 26.4999 136.242 25.971C136.242 25.442 136.198 24.8396 136.198 24.149Z" fill="#1D1D1B"/>
<path d="M144.225 30.4967C144.457 30.5232 144.692 30.4959 144.911 30.4168C145.131 30.3378 145.33 30.2093 145.491 30.0412C145.752 29.6707 145.896 29.2305 145.904 28.7776C145.94 28.2413 145.963 27.6242 145.963 26.9189V13.0336C145.963 12.7251 145.963 12.4238 145.963 12.1447C145.963 11.8655 145.999 11.5202 146.036 11.1308L144.991 11.1896L143.945 11.2484V10.0141C144.619 10.0274 145.294 9.98811 145.963 9.89659C146.337 9.84553 146.703 9.74677 147.052 9.60272C147.264 9.50777 147.458 9.3787 147.627 9.2207H148.481V28.2633C148.481 28.6601 148.481 28.998 148.481 29.3066C148.459 29.6268 148.419 29.9456 148.363 30.2616L149.284 30.2176L150.212 30.1735V31.3783H144.21L144.225 30.4967Z" fill="#1D1D1B"/>
<path d="M154.873 30.4966C155.105 30.5231 155.34 30.4958 155.56 30.4168C155.78 30.3377 155.978 30.2092 156.14 30.0411C156.398 29.669 156.541 29.2298 156.552 28.7775C156.552 28.2412 156.611 27.6241 156.611 26.9188V20.2113C156.611 19.8954 156.611 19.6015 156.611 19.315C156.611 19.0284 156.663 18.6978 156.7 18.3011L155.654 18.3599L154.608 18.4187V17.1918C155.278 17.2017 155.947 17.1624 156.611 17.0742C156.981 17.0227 157.342 16.924 157.686 16.7803C157.896 16.6828 158.09 16.554 158.261 16.3983H159.108V28.2486C159.108 28.6453 159.108 28.9832 159.108 29.2918C159.098 29.6123 159.063 29.9316 159.005 30.2469L159.932 30.2028L160.86 30.1587V31.3635H154.873V30.4966ZM157.745 13.467C157.538 13.4675 157.333 13.4231 157.145 13.3369C156.957 13.2506 156.79 13.1245 156.655 12.9674C156.5 12.804 156.378 12.6114 156.297 12.4009C156.216 12.1903 156.178 11.9659 156.184 11.7405C156.174 11.2765 156.349 10.8274 156.67 10.4916C156.807 10.3322 156.976 10.2038 157.167 10.1151C157.357 10.0264 157.564 9.97941 157.775 9.97732C157.989 9.97316 158.202 10.0172 158.397 10.1063C158.592 10.1953 158.764 10.327 158.901 10.4916C159.208 10.8341 159.372 11.2812 159.358 11.7405C159.364 11.9671 159.323 12.1925 159.24 12.4032C159.156 12.614 159.031 12.8059 158.872 12.9674C158.731 13.127 158.558 13.2542 158.364 13.3405C158.169 13.4267 157.958 13.4699 157.745 13.467Z" fill="#1D1D1B"/>
<path d="M165.492 31.3415V30.4966C165.724 30.5231 165.959 30.4957 166.179 30.4167C166.399 30.3377 166.597 30.2092 166.759 30.0411C167.017 29.669 167.16 29.2298 167.171 28.7775C167.208 28.2412 167.23 27.624 167.23 26.9188V20.2259C167.23 19.91 167.23 19.6014 167.23 19.2855C167.24 18.9602 167.275 18.6361 167.333 18.3158L166.287 18.3745L165.242 18.4333V17.2064C165.897 17.2177 166.552 17.1784 167.201 17.0889C167.542 17.0395 167.875 16.9405 168.187 16.795C168.38 16.6905 168.558 16.5621 168.718 16.413H169.564C169.588 16.5687 169.603 16.7257 169.609 16.8832C169.609 17.0595 169.609 17.2505 169.653 17.4709C169.665 17.7156 169.665 17.9608 169.653 18.2056C170.097 17.832 170.576 17.5 171.081 17.2138C171.602 16.9089 172.156 16.6626 172.731 16.4791C173.286 16.3058 173.865 16.2167 174.447 16.2146C175.153 16.155 175.864 16.2691 176.516 16.5471C177.168 16.825 177.742 17.2583 178.188 17.8089C178.968 18.8815 179.366 20.5345 179.366 22.7899V28.2412C179.366 28.6379 179.366 28.9758 179.366 29.2844C179.352 29.6046 179.318 29.9237 179.263 30.2395L180.183 30.1954C180.493 30.1954 180.802 30.1807 181.111 30.1513V31.3562H175.11V30.4966C175.342 30.5231 175.577 30.4957 175.796 30.4167C176.016 30.3377 176.214 30.2092 176.376 30.0411C176.637 29.6706 176.781 29.2304 176.789 28.7775C176.789 28.2412 176.847 27.624 176.847 26.9188V22.812C176.91 21.4869 176.621 20.1689 176.008 18.9917C175.741 18.569 175.363 18.2277 174.915 18.0048C174.467 17.782 173.966 17.6862 173.467 17.728C172.741 17.7538 172.031 17.9448 171.391 18.2864C170.742 18.6205 170.166 19.08 169.697 19.6382C169.709 19.8143 169.709 19.991 169.697 20.1671V20.7843V28.2632C169.697 28.6599 169.697 28.9979 169.697 29.3064C169.687 29.6269 169.653 29.9462 169.594 30.2615L170.522 30.2174L171.45 30.1733V31.3782L165.492 31.3415Z" fill="#1D1D1B"/>
<path d="M185.434 31.3416V30.4967C185.664 30.5243 185.897 30.4974 186.114 30.4183C186.332 30.3392 186.528 30.21 186.686 30.0412C186.938 29.6675 187.077 29.2284 187.083 28.7776C187.083 28.2413 187.142 27.6242 187.142 26.9189V13.0336C187.142 12.7251 187.142 12.4238 187.142 12.1447C187.142 11.8655 187.142 11.5202 187.216 11.1308L186.17 11.1896L185.125 11.2484V10.0141C185.794 10.028 186.464 9.98874 187.128 9.89659C187.497 9.84608 187.859 9.74728 188.203 9.60272C188.414 9.50777 188.608 9.3787 188.777 9.2207H189.631V23.0986H190.883L194.477 19.3445C194.808 19.0138 195.11 18.7126 195.39 18.4482C195.64 18.2016 195.914 17.9802 196.207 17.787L194.212 17.8751V16.707H199.565V17.5812C198.9 17.6405 198.259 17.857 197.695 18.2131C197.128 18.5702 196.596 18.9785 196.104 19.4326C195.626 19.8808 195.213 20.2922 194.86 20.6668L192.562 23.0692C192.934 23.2326 193.273 23.4616 193.564 23.7451C193.836 24.0243 194.109 24.3255 194.388 24.6561L196.473 27.3303C196.576 27.4479 196.745 27.6682 196.988 28.0062C197.231 28.3441 197.526 28.6968 197.872 29.0862C198.194 29.4611 198.56 29.7965 198.962 30.0853C199.268 30.331 199.644 30.4748 200.037 30.4967V31.3783H197.356C197.049 31.3586 196.751 31.272 196.481 31.1248C196.211 30.9776 195.977 30.7732 195.795 30.5261C195.309 29.9604 194.786 29.3213 194.241 28.616C193.696 27.9107 193.269 27.2715 192.872 26.6985C192.474 26.1254 192.135 25.6185 191.782 25.1851C191.521 24.8277 191.231 24.4934 190.913 24.1859L189.712 24.2447V28.2633C189.712 28.6601 189.712 28.998 189.712 29.3066C189.699 29.6268 189.664 29.9458 189.609 30.2616L190.544 30.2176C190.861 30.2176 191.178 30.2176 191.487 30.1735V31.3783L185.434 31.3416Z" fill="#1D1D1B"/>
<path d="M28.0054 2.66722C27.8819 2.553 27.737 2.46434 27.579 2.40633C27.421 2.34833 27.2531 2.32213 27.0848 2.32927C26.7738 2.32865 26.4749 2.45002 26.2527 2.66722C26.1365 2.77645 26.0444 2.90867 25.9823 3.0554C25.9201 3.20214 25.8894 3.36017 25.8919 3.51944V27.0289C25.9122 28.211 25.6037 29.3757 25.0008 30.3936C24.421 31.3763 23.5999 32.1955 22.6149 32.774C21.6394 33.3606 20.521 33.6681 19.382 33.6629C18.2191 33.674 17.0755 33.3665 16.0756 32.774C15.0939 32.1912 14.2738 31.373 13.6897 30.3936C13.0899 29.3744 12.7818 28.2106 12.7986 27.0289V17.1843C12.8091 16.872 12.6952 16.5683 12.4819 16.3394C12.3742 16.2262 12.2438 16.1369 12.0991 16.0774C11.9545 16.0179 11.7989 15.9895 11.6425 15.9941C11.4804 15.988 11.3188 16.0155 11.1679 16.075C11.0171 16.1344 10.8803 16.2245 10.7661 16.3394C10.5556 16.5699 10.4422 16.8725 10.4495 17.1843V26.9995C10.4325 28.5968 10.8444 30.1696 11.6425 31.5544C12.4186 32.8891 13.5206 34.0061 14.8458 34.8017C16.2182 35.6116 17.7877 36.0285 19.382 36.0065C20.9808 36.0266 22.5546 35.61 23.933 34.8017C25.2659 34.0109 26.3737 32.893 27.1511 31.5544C27.9526 30.1709 28.3647 28.5972 28.3441 26.9995V3.49004C28.3446 3.33741 28.315 3.18617 28.2569 3.04498C28.1987 2.90378 28.1133 2.77541 28.0054 2.66722Z" fill="#1D1D1B"/>
<path d="M19.4189 11.6008C18.647 10.263 17.5441 9.14501 16.2156 8.35358C14.835 7.55925 13.2693 7.14111 11.6756 7.14111C10.0819 7.14111 8.51629 7.55925 7.13573 8.35358C5.79959 9.14013 4.69078 10.259 3.91763 11.6008C3.11294 12.9833 2.69819 14.5572 2.71731 16.1558V28.6011C2.71334 28.7592 2.74202 28.9165 2.80156 29.0631C2.8611 29.2097 2.95023 29.3425 3.06342 29.4533C3.18403 29.5694 3.3274 29.6594 3.48454 29.7175C3.64169 29.7757 3.80921 29.8008 3.97655 29.7913C4.13084 29.7932 4.28396 29.7643 4.42687 29.7062C4.56979 29.6482 4.69961 29.5622 4.80869 29.4533C4.92716 29.3458 5.02078 29.2139 5.08309 29.0668C5.1454 28.9196 5.17488 28.7608 5.16952 28.6011V16.1558C5.14821 14.9754 5.45128 13.8117 6.04585 12.791C6.62567 11.8083 7.44679 10.9891 8.43179 10.4107C9.40999 9.8242 10.5307 9.51673 11.672 9.52173C12.8325 9.51161 13.9735 9.81906 14.9711 10.4107C15.9561 10.9891 16.7772 11.8083 17.357 12.791C17.9599 13.8089 18.2683 14.9736 18.2481 16.1558V25.9489C18.2394 26.1084 18.2629 26.268 18.3173 26.4182C18.3717 26.5684 18.4558 26.7061 18.5647 26.8232C18.6718 26.9372 18.8022 27.027 18.947 27.0865C19.0918 27.1461 19.2477 27.174 19.4042 27.1685C19.5653 27.1754 19.726 27.1482 19.8758 27.0887C20.0256 27.0292 20.161 26.9387 20.2732 26.8232C20.4864 26.5943 20.6003 26.2906 20.5898 25.9783V16.1558C20.6183 14.5599 20.2137 12.9861 19.4189 11.6008Z" fill="#1D1D1B"/>
<path d="M3.93973 28.2412C3.16084 28.2427 2.39985 28.4744 1.75293 28.9072C1.10601 29.34 0.602173 29.9543 0.30511 30.6727C0.00804797 31.391 -0.0689188 32.181 0.0839284 32.943C0.236776 33.705 0.612581 34.4046 1.16386 34.9535C1.71514 35.5025 2.41714 35.8761 3.18117 36.0272C3.94521 36.1783 4.73699 36.1 5.45646 35.8023C6.17592 35.5046 6.79081 35.0008 7.22339 34.3546C7.65598 33.7084 7.88685 32.9488 7.88685 32.1717C7.8849 31.1286 7.46819 30.1289 6.72817 29.392C5.98815 28.6551 4.9853 28.2412 3.93973 28.2412ZM6.10474 32.1717C6.10474 32.5989 5.97779 33.0165 5.73989 33.3717C5.50199 33.7269 5.16384 34.0037 4.76823 34.1672C4.37263 34.3307 3.93732 34.3735 3.51735 34.2901C3.09738 34.2068 2.7116 34.0011 2.40881 33.699C2.10603 33.3969 1.89984 33.0121 1.8163 32.5931C1.73276 32.1741 1.77564 31.7398 1.9395 31.3451C2.10337 30.9505 2.38086 30.6131 2.7369 30.3758C3.09294 30.1384 3.51153 30.0118 3.93973 30.0118C4.51394 30.0118 5.06462 30.2393 5.47064 30.6444C5.87666 31.0495 6.10474 31.5988 6.10474 32.1717Z" fill="#1D1D1B"/>
<path d="M32.2691 5.18729L27.9906 0.830708C27.7785 0.622522 27.4929 0.505859 27.1953 0.505859C26.8978 0.505859 26.6121 0.622522 26.4 0.830708L21.9816 5.23873C21.7742 5.45249 21.6582 5.73833 21.6582 6.03584C21.6582 6.33334 21.7742 6.61921 21.9816 6.83297C22.1959 7.03989 22.4824 7.15557 22.7806 7.15557C23.0788 7.15557 23.3653 7.03989 23.5796 6.83297L27.188 3.22574L30.6712 6.79622C30.8851 7.00097 31.17 7.11529 31.4665 7.11529C31.7629 7.11529 32.0479 7.00097 32.2618 6.79622C32.3672 6.69261 32.4507 6.56908 32.5076 6.43283C32.5645 6.29659 32.5936 6.15038 32.5932 6.00279C32.5963 5.85219 32.5692 5.70246 32.5136 5.56243C32.458 5.4224 32.3748 5.29486 32.2691 5.18729Z" fill="#1D1D1B"/>
</g>
<defs>
<clipPath id="clip0_73_304">
<rect width="200" height="45" fill="white" transform="translate(0 0.5)"/>
</clipPath>
</defs>
</svg>
