<svg width="33" height="52" viewBox="0 0 33 52" fill="none" xmlns="http://www.w3.org/2000/svg">
<path d="M28.0054 9.66722C27.8819 9.553 27.737 9.46434 27.579 9.40633C27.421 9.34833 27.2531 9.32213 27.0848 9.32927C26.7738 9.32865 26.4749 9.45002 26.2527 9.66722C26.1365 9.77645 26.0444 9.90867 25.9823 10.0554C25.9201 10.2021 25.8894 10.3602 25.8919 10.5194V34.0289C25.9122 35.211 25.6037 36.3757 25.0008 37.3936C24.421 38.3763 23.5999 39.1955 22.6149 39.774C21.6394 40.3606 20.521 40.6681 19.382 40.6629C18.2191 40.674 17.0755 40.3665 16.0756 39.774C15.0939 39.1912 14.2738 38.373 13.6897 37.3936C13.0899 36.3744 12.7818 35.2106 12.7986 34.0289V24.1843C12.8091 23.872 12.6952 23.5683 12.4819 23.3394C12.3742 23.2262 12.2438 23.1369 12.0991 23.0774C11.9545 23.0179 11.7989 22.9895 11.6425 22.9941C11.4804 22.988 11.3188 23.0155 11.1679 23.075C11.0171 23.1344 10.8803 23.2245 10.7661 23.3394C10.5556 23.5699 10.4422 23.8725 10.4495 24.1843V33.9995C10.4325 35.5968 10.8444 37.1696 11.6425 38.5544C12.4186 39.8891 13.5206 41.0061 14.8458 41.8017C16.2182 42.6116 17.7877 43.0285 19.382 43.0065C20.9808 43.0266 22.5546 42.61 23.933 41.8017C25.2659 41.0109 26.3737 39.893 27.1511 38.5544C27.9526 37.1709 28.3647 35.5972 28.3441 33.9995V10.49C28.3446 10.3374 28.315 10.1862 28.2569 10.045C28.1987 9.90378 28.1133 9.77541 28.0054 9.66722Z" fill="#1D1D1B"/>
<path d="M19.4191 18.6008C18.6471 17.263 17.5442 16.145 16.2157 15.3536C14.8351 14.5593 13.2695 14.1411 11.6758 14.1411C10.0821 14.1411 8.51641 14.5593 7.13585 15.3536C5.79972 16.1401 4.6909 17.259 3.91775 18.6008C3.11306 19.9833 2.69831 21.5572 2.71743 23.1558V35.6011C2.71346 35.7592 2.74214 35.9165 2.80168 36.0631C2.86122 36.2097 2.95036 36.3425 3.06354 36.4533C3.18415 36.5694 3.32752 36.6594 3.48467 36.7175C3.64181 36.7757 3.80933 36.8008 3.97667 36.7913C4.13096 36.7932 4.28408 36.7643 4.42699 36.7062C4.56991 36.6482 4.69973 36.5622 4.80881 36.4533C4.92728 36.3458 5.02091 36.2139 5.08321 36.0668C5.14552 35.9196 5.17501 35.7608 5.16964 35.6011V23.1558C5.14833 21.9754 5.4514 20.8117 6.04597 19.791C6.6258 18.8083 7.44691 17.9891 8.43191 17.4107C9.41011 16.8242 10.5309 16.5167 11.6721 16.5217C12.8326 16.5116 13.9736 16.8191 14.9712 17.4107C15.9562 17.9891 16.7773 18.8083 17.3571 19.791C17.96 20.8089 18.2685 21.9736 18.2482 23.1558V32.9489C18.2395 33.1084 18.263 33.268 18.3174 33.4182C18.3718 33.5684 18.456 33.7061 18.5648 33.8232C18.672 33.9372 18.8023 34.027 18.9471 34.0865C19.0919 34.1461 19.2478 34.174 19.4043 34.1685C19.5654 34.1754 19.7261 34.1482 19.8759 34.0887C20.0257 34.0292 20.1611 33.9387 20.2733 33.8232C20.4866 33.5943 20.6004 33.2906 20.5899 32.9783V23.1558C20.6184 21.5599 20.2138 19.9861 19.4191 18.6008Z" fill="#1D1D1B"/>
<path d="M3.93973 35.2412C3.16084 35.2427 2.39985 35.4744 1.75293 35.9072C1.10601 36.34 0.602173 36.9543 0.30511 37.6727C0.00804797 38.391 -0.0689188 39.181 0.0839284 39.943C0.236776 40.705 0.612581 41.4046 1.16386 41.9535C1.71514 42.5025 2.41714 42.8761 3.18117 43.0272C3.94521 43.1783 4.73699 43.1 5.45646 42.8023C6.17592 42.5046 6.79081 42.0008 7.22339 41.3546C7.65598 40.7084 7.88685 39.9488 7.88685 39.1717C7.8849 38.1286 7.46819 37.1289 6.72817 36.392C5.98815 35.6551 4.9853 35.2412 3.93973 35.2412ZM6.10474 39.1717C6.10474 39.5989 5.97779 40.0165 5.73989 40.3717C5.50199 40.7269 5.16384 41.0037 4.76823 41.1672C4.37263 41.3307 3.93732 41.3735 3.51735 41.2901C3.09738 41.2068 2.7116 41.0011 2.40881 40.699C2.10603 40.3969 1.89984 40.0121 1.8163 39.5931C1.73276 39.1741 1.77564 38.7398 1.9395 38.3451C2.10337 37.9505 2.38086 37.6131 2.7369 37.3758C3.09294 37.1384 3.51153 37.0118 3.93973 37.0118C4.51394 37.0118 5.06462 37.2393 5.47064 37.6444C5.87666 38.0495 6.10474 38.5988 6.10474 39.1717Z" fill="#1D1D1B"/>
<path d="M32.2691 12.1873L27.9906 7.83071C27.7785 7.62252 27.4929 7.50586 27.1953 7.50586C26.8978 7.50586 26.6121 7.62252 26.4 7.83071L21.9816 12.2387C21.7742 12.4525 21.6582 12.7383 21.6582 13.0358C21.6582 13.3333 21.7742 13.6192 21.9816 13.833C22.1959 14.0399 22.4824 14.1556 22.7806 14.1556C23.0788 14.1556 23.3653 14.0399 23.5796 13.833L27.188 10.2257L30.6712 13.7962C30.8851 14.001 31.17 14.1153 31.4665 14.1153C31.7629 14.1153 32.0479 14.001 32.2618 13.7962C32.3672 13.6926 32.4507 13.5691 32.5076 13.4328C32.5645 13.2966 32.5936 13.1504 32.5932 13.0028C32.5963 12.8522 32.5692 12.7025 32.5136 12.5624C32.458 12.4224 32.3748 12.2949 32.2691 12.1873Z" fill="#1D1D1B"/>
</svg>
