<svg width="20" height="19" viewBox="0 0 20 19" fill="none" xmlns="http://www.w3.org/2000/svg">
<path d="M9.23392 0.74199C9.53327 -0.17932 10.8367 -0.179319 11.136 0.741992L12.6962 5.54357C12.83 5.95559 13.214 6.23455 13.6472 6.23455L18.6959 6.23455C19.6646 6.23455 20.0674 7.47416 19.2837 8.04357L15.1992 11.0111C14.8487 11.2657 14.7021 11.7171 14.8359 12.1291L16.3961 16.9307C16.6954 17.852 15.6409 18.6181 14.8572 18.0487L10.7728 15.0812C10.4223 14.8266 9.94767 14.8266 9.59719 15.0812L5.51272 18.0487C4.72901 18.6181 3.67453 17.852 3.97388 16.9307L5.53401 12.1291C5.66788 11.7171 5.52122 11.2657 5.17074 11.0111L1.08627 8.04356C0.302557 7.47416 0.705334 6.23455 1.67406 6.23455L6.72273 6.23455C7.15596 6.23455 7.53991 5.95559 7.67379 5.54357L9.23392 0.74199Z" fill="#6BF2C1"/>
</svg>
