<svg width="8" height="14" viewBox="0 0 8 14" fill="none" xmlns="http://www.w3.org/2000/svg">
<path fill-rule="evenodd" clip-rule="evenodd" d="M1.05062 13.178C1.30835 13.4262 1.72517 13.4262 1.98226 13.178L7.43144 7.91901C7.55342 7.80308 7.65055 7.66379 7.71692 7.50916C7.78329 7.35453 7.8175 7.18773 7.8175 7.01946C7.8175 6.85118 7.78329 6.6847 7.71692 6.53007C7.65055 6.37543 7.55342 6.23614 7.43144 6.12022L1.94281 0.82237C1.81824 0.703973 1.65328 0.637428 1.48143 0.636246C1.30958 0.635065 1.14371 0.699483 1.01753 0.816156C0.955018 0.873772 0.905008 0.943504 0.870584 1.02123C0.836159 1.09896 0.818058 1.18294 0.817401 1.26795C0.816745 1.35296 0.833547 1.43703 0.866768 1.51529C0.899988 1.59354 0.948914 1.66428 1.01053 1.72285L6.03398 6.57015C6.09502 6.62812 6.14362 6.69788 6.17684 6.77523C6.21005 6.85258 6.22719 6.93559 6.22719 7.01977C6.22719 7.10395 6.21005 7.18727 6.17684 7.26462C6.14362 7.34197 6.09502 7.41173 6.03398 7.4697L1.05062 12.2788C0.989599 12.3367 0.94101 12.4066 0.907803 12.4839C0.874596 12.5612 0.857465 12.6443 0.857465 12.7284C0.857465 12.8125 0.874596 12.8956 0.907803 12.9729C0.94101 13.0502 0.989599 13.1201 1.05062 13.178Z" fill="black"/>
</svg>
