<svg width="14" height="8" viewBox="0 0 14 8" fill="none" xmlns="http://www.w3.org/2000/svg">
<path fill-rule="evenodd" clip-rule="evenodd" d="M13.178 6.94889C13.4262 6.69116 13.4262 6.27434 13.178 6.01725L7.91901 0.568068C7.80308 0.44609 7.66379 0.348959 7.50916 0.28259C7.35453 0.216221 7.18773 0.182012 7.01946 0.182012C6.85118 0.182012 6.6847 0.216221 6.53007 0.28259C6.37543 0.348959 6.23614 0.44609 6.12022 0.568068L0.82237 6.05671C0.703973 6.18127 0.637428 6.34623 0.636246 6.51808C0.635065 6.68993 0.699483 6.8558 0.816156 6.98198C0.873772 7.04449 0.943504 7.0945 1.02123 7.12893C1.09896 7.16335 1.18294 7.18145 1.26795 7.18211C1.35296 7.18277 1.43703 7.16596 1.51529 7.13274C1.59354 7.09952 1.66428 7.0506 1.72285 6.98899L6.57015 1.96553C6.62812 1.90449 6.69788 1.85589 6.77523 1.82268C6.85258 1.78946 6.93559 1.77232 7.01977 1.77232C7.10395 1.77232 7.18727 1.78946 7.26462 1.82268C7.34197 1.85589 7.41173 1.90449 7.4697 1.96553L12.2788 6.94889C12.3367 7.00991 12.4066 7.0585 12.4839 7.09171C12.5612 7.12492 12.6443 7.14205 12.7284 7.14205C12.8125 7.14205 12.8956 7.12492 12.9729 7.09171C13.0502 7.0585 13.1201 7.00991 13.178 6.94889Z" fill="#6BF2C1"/>
</svg>
