<svg width="14" height="8" viewBox="0 0 14 8" fill="none" xmlns="http://www.w3.org/2000/svg">
<path fill-rule="evenodd" clip-rule="evenodd" d="M0.821982 1.05062C0.573801 1.30835 0.573801 1.72517 0.821982 1.98226L6.08099 7.43144C6.19692 7.55342 6.33621 7.65055 6.49084 7.71692C6.64547 7.78329 6.81227 7.8175 6.98054 7.8175C7.14882 7.8175 7.3153 7.78329 7.46993 7.71692C7.62457 7.65055 7.76386 7.55342 7.87978 7.43144L13.1776 1.94281C13.296 1.81824 13.3626 1.65328 13.3638 1.48143C13.3649 1.30958 13.3005 1.14371 13.1838 1.01753C13.1262 0.955018 13.0565 0.905008 12.9788 0.870584C12.901 0.836159 12.8171 0.818058 12.7321 0.817401C12.647 0.816745 12.563 0.833547 12.4847 0.866768C12.4065 0.899988 12.3357 0.948914 12.2772 1.01053L7.42985 6.03398C7.37188 6.09502 7.30212 6.14362 7.22477 6.17684C7.14742 6.21005 7.06441 6.22719 6.98023 6.22719C6.89605 6.22719 6.81273 6.21005 6.73538 6.17684C6.65803 6.14362 6.58827 6.09502 6.5303 6.03398L1.72122 1.05062C1.66331 0.989599 1.59343 0.94101 1.51614 0.907803C1.43885 0.874596 1.35573 0.857465 1.2716 0.857466C1.18748 0.857466 1.10435 0.874596 1.02706 0.907803C0.949767 0.94101 0.879891 0.989599 0.821982 1.05062Z" fill="black"/>
</svg>
