<svg width="40" height="40" viewBox="0 0 40 40" fill="none" xmlns="http://www.w3.org/2000/svg">
<path d="M5.45455 0C2.44845 0 0 2.44845 0 5.45455V34.5455C0 37.5515 2.44845 40 5.45455 40H34.5455C37.5515 40 40 37.5515 40 34.5455V12.7273C40 9.72118 37.5515 7.27273 34.5455 7.27273H26.3636V5.45455C26.3636 2.44845 23.9152 0 20.9091 0H5.45455ZM5.45455 1.81818V38.1818C3.42427 38.1818 1.81818 36.5757 1.81818 34.5455V5.45455C1.81818 3.42427 3.42427 1.81818 5.45455 1.81818ZM7.27273 1.81818H20.9091C22.9394 1.81818 24.5455 3.42427 24.5455 5.45455V7.27273H22.7273C19.7212 7.27273 17.2727 9.72118 17.2727 12.7273V34.5455C17.2727 35.9424 17.8059 37.2155 18.6736 38.1818H7.27273V1.81818ZM22.7273 9.09091H34.5455C36.5757 9.09091 38.1818 10.697 38.1818 12.7273V34.5455C38.1818 36.5757 36.5757 38.1818 34.5455 38.1818H22.7273C20.697 38.1818 19.0909 36.5757 19.0909 34.5455V12.7273C19.0909 10.697 20.697 9.09091 22.7273 9.09091Z" fill="black"/>
<path d="M23.6361 22.7273C23.395 22.7273 23.1638 22.823 22.9933 22.9935C22.8228 23.164 22.7271 23.3952 22.7271 23.6363C22.7271 23.8775 22.8228 24.1087 22.9933 24.2792C23.1638 24.4497 23.395 24.5454 23.6361 24.5454H33.6361C33.8772 24.5454 34.1085 24.4497 34.279 24.2792C34.4495 24.1087 34.5452 23.8775 34.5452 23.6363C34.5452 23.3952 34.4495 23.164 34.279 22.9935C34.1085 22.823 33.8772 22.7273 33.6361 22.7273H23.6361ZM23.6361 15.4545C23.395 15.4545 23.1638 15.5503 22.9933 15.7208C22.8228 15.8913 22.7271 16.1225 22.7271 16.3636C22.7271 16.6047 22.8228 16.836 22.9933 17.0064C23.1638 17.1769 23.395 17.2727 23.6361 17.2727H33.6361C33.8772 17.2727 34.1085 17.1769 34.279 17.0064C34.4495 16.836 34.5452 16.6047 34.5452 16.3636C34.5452 16.1225 34.4495 15.8913 34.279 15.7208C34.1085 15.5503 33.8772 15.4545 33.6361 15.4545H23.6361ZM23.6361 30C23.395 30 23.1638 30.0958 22.9933 30.2662C22.8228 30.4367 22.7271 30.668 22.7271 30.9091C22.7271 31.1502 22.8228 31.3814 22.9933 31.5519C23.1638 31.7224 23.395 31.8182 23.6361 31.8182H33.6361C33.8772 31.8182 34.1085 31.7224 34.279 31.5519C34.4495 31.3814 34.5452 31.1502 34.5452 30.9091C34.5452 30.668 34.4495 30.4367 34.279 30.2662C34.1085 30.0958 33.8772 30 33.6361 30H23.6361Z" fill="black"/>
</svg>
