<svg width="17" height="18" viewBox="0 0 17 18" fill="none" xmlns="http://www.w3.org/2000/svg">
<path d="M9.4158 8.99921L15.7158 2.70921C15.9041 2.52091 16.0099 2.26551 16.0099 1.99921C16.0099 1.73291 15.9041 1.47751 15.7158 1.28921C15.5275 1.10091 15.2721 0.995117 15.0058 0.995117C14.7395 0.995117 14.4841 1.10091 14.2958 1.28921L8.0058 7.58921L1.7158 1.28921C1.52749 1.10091 1.2721 0.995117 1.0058 0.995117C0.739497 0.995117 0.484102 1.10091 0.295798 1.28921C0.107495 1.47751 0.00170684 1.73291 0.00170684 1.99921C0.00170684 2.26551 0.107495 2.52091 0.295798 2.70921L6.5958 8.99921L0.295798 15.2892C0.20207 15.3822 0.127676 15.4928 0.0769072 15.6146C0.0261385 15.7365 0 15.8672 0 15.9992C0 16.1312 0.0261385 16.2619 0.0769072 16.3838C0.127676 16.5056 0.20207 16.6162 0.295798 16.7092C0.388761 16.8029 0.499362 16.8773 0.621222 16.9281C0.743081 16.9789 0.873786 17.005 1.0058 17.005C1.13781 17.005 1.26852 16.9789 1.39038 16.9281C1.51223 16.8773 1.62284 16.8029 1.7158 16.7092L8.0058 10.4092L14.2958 16.7092C14.3888 16.8029 14.4994 16.8773 14.6212 16.9281C14.7431 16.9789 14.8738 17.005 15.0058 17.005C15.1378 17.005 15.2685 16.9789 15.3904 16.9281C15.5122 16.8773 15.6228 16.8029 15.7158 16.7092C15.8095 16.6162 15.8839 16.5056 15.9347 16.3838C15.9855 16.2619 16.0116 16.1312 16.0116 15.9992C16.0116 15.8672 15.9855 15.7365 15.9347 15.6146C15.8839 15.4928 15.8095 15.3822 15.7158 15.2892L9.4158 8.99921Z" fill="black"/>
</svg>
