<svg width="13" height="12" viewBox="0 0 13 12" fill="none" xmlns="http://www.w3.org/2000/svg">
<path d="M10.1458 0.166748C10.7484 0.166748 11.2636 0.380688 11.6915 0.808567C12.1194 1.23645 12.3333 1.75167 12.3333 2.35425V9.64592C12.3333 10.2485 12.1194 10.7637 11.6915 11.1916C11.2636 11.6195 10.7484 11.8334 10.1458 11.8334H8.71784V7.3141H10.2293L10.4572 5.55195H8.71784V4.42782C8.71784 4.14425 8.77734 3.93158 8.89634 3.7898C9.01533 3.64801 9.24699 3.57712 9.59132 3.57712L10.518 3.56953V1.99726C10.199 1.95169 9.7483 1.9289 9.16598 1.9289C8.47732 1.9289 7.92665 2.13145 7.51396 2.53654C7.10127 2.94163 6.89493 3.51383 6.89493 4.25312V5.55195H5.37583V7.3141H6.89493V11.8334H2.85413C2.25155 11.8334 1.73632 11.6195 1.30844 11.1916C0.880566 10.7637 0.666626 10.2485 0.666626 9.64592V2.35425C0.666626 1.75167 0.880566 1.23645 1.30844 0.808567C1.73632 0.380688 2.25155 0.166748 2.85413 0.166748H10.1458Z" fill="black"/>
</svg>
