<svg width="60" height="60" viewBox="0 0 60 60" fill="none" xmlns="http://www.w3.org/2000/svg">
<path d="M35.117 10C33.3469 10 31.575 10.6786 30.2254 12.0392C27.5262 14.7599 27.5262 19.1866 30.2254 21.9075C30.2335 21.9148 30.2417 21.9219 30.25 21.9289L40.1668 31.2741C40.3328 31.4312 40.5514 31.5189 40.7787 31.5196H40.7892H40.7963C41.0235 31.5189 41.2421 31.4312 41.4082 31.2741L51.3284 21.9289C54.1439 19.2763 54.049 14.7601 51.3495 12.0392C51.2651 11.9535 51.1647 11.8858 51.0542 11.8399C51.0542 11.8399 51.0506 11.8399 51.0506 11.8399C48.3369 9.37916 44.1811 9.40644 41.5699 12.0392L40.7857 12.8292L40.005 12.0392C38.6555 10.6786 36.8871 10 35.117 10ZM35.117 11.8043V11.8078C36.4229 11.8078 37.7283 12.3155 38.7356 13.331L40.1527 14.758C40.3214 14.9277 40.5496 15.023 40.7875 15.023C41.0253 15.023 41.2535 14.9277 41.4222 14.758L42.8394 13.331C44.8539 11.2997 48.0621 11.3001 50.0765 13.331C50.0789 13.331 50.0812 13.331 50.0836 13.331C52.0943 15.3615 52.155 18.6593 50.1012 20.5943L40.7892 29.3666L31.4984 20.6157C29.484 18.585 29.4841 15.3577 31.4984 13.3274C32.5056 12.312 33.8111 11.8043 35.117 11.8043ZM3.90025 26.8577C3.66149 26.8577 3.43253 26.9537 3.2637 27.1246C3.09488 27.2954 3.00002 27.5271 3 27.7687V46.324C3.00002 46.5656 3.09488 46.7973 3.2637 46.9681C3.43253 47.139 3.66149 47.235 3.90025 47.235H8.82347H13.7502C13.989 47.235 14.2179 47.139 14.3867 46.9681C14.5556 46.7973 14.6504 46.5656 14.6505 46.324V44.9823L31.4668 50.7475C31.49 50.7544 31.5134 50.7603 31.5371 50.7653C33.4952 51.268 35.7539 50.9697 37.4625 49.808L54.8767 40.2314C54.8814 40.2315 54.8861 40.2315 54.8908 40.2314L55.3163 39.9859C56.7696 39.1539 57.3927 37.3429 56.744 35.7901C56.1918 34.4686 55.1064 33.8621 54.2578 33.7367V33.7296C53.4092 33.6039 52.714 33.8471 52.714 33.8471C52.684 33.8585 52.6547 33.8716 52.6261 33.8862L43.0258 38.3916C43.0382 38.2687 43.0645 38.1511 43.0645 38.025C43.0645 35.9781 41.3889 34.3132 39.358 34.3132H31.3648C31.3303 34.2513 31.2909 34.1639 31.2593 34.1068C31.1164 33.8456 30.9617 33.5937 30.7951 33.3488C30.4618 32.8589 30.0821 32.4018 29.6628 31.9858C27.9852 30.3227 25.6601 29.299 23.1043 29.299H14.6505V27.7687C14.6504 27.5271 14.5556 27.2954 14.3867 27.1246C14.2179 26.9537 13.989 26.8577 13.7502 26.8577H8.82347H3.90025ZM4.80049 28.6798H8.82347H12.85V45.4129H8.82347H4.80049V28.6798ZM14.6505 31.1211H23.1043C25.1868 31.1211 27.0513 31.9508 28.4003 33.2883C28.7376 33.6229 29.0439 33.9882 29.3111 34.3809C29.4448 34.5775 29.5695 34.7802 29.6839 34.9894C29.8249 35.2476 29.9207 35.4048 29.9968 35.5837L30.2289 36.1353H31.0202H39.358C40.4364 36.1353 41.264 36.97 41.264 38.025C41.264 38.8162 40.7982 39.4785 40.1105 39.7617L40.1 39.7652C39.8734 39.8571 39.6237 39.9111 39.358 39.9111H26.8354V41.7332H39.358C39.7343 41.7332 40.0906 41.6577 40.4341 41.5517C40.541 41.5444 40.6458 41.5179 40.7435 41.4734L53.3083 35.5766C53.3236 35.5766 53.6207 35.4774 53.9975 35.5339C54.3839 35.5904 54.7551 35.698 55.0877 36.4948C55.3849 37.2063 55.1171 38.0019 54.4301 38.3951L54.0081 38.6335L36.5307 48.2492C36.5053 48.2634 36.4807 48.2789 36.4568 48.2955C35.2695 49.1029 33.4257 49.3693 31.9837 49.0001H31.9802L14.6505 43.0606V31.1211Z" fill="black"/>
</svg>
