<svg width="13" height="12" viewBox="0 0 13 12" fill="none" xmlns="http://www.w3.org/2000/svg">
<path d="M6.49996 4.55342C6.21384 4.55342 5.93414 4.63826 5.69623 4.79722C5.45833 4.95618 5.27291 5.18212 5.16341 5.44647C5.05392 5.71081 5.02527 6.00169 5.08109 6.28231C5.13691 6.56294 5.27469 6.82071 5.47701 7.02303C5.67933 7.22535 5.9371 7.36313 6.21773 7.41895C6.49835 7.47477 6.78923 7.44612 7.05358 7.33663C7.31792 7.22713 7.54386 7.04171 7.70282 6.80381C7.86178 6.5659 7.94663 6.28621 7.94663 6.00008C7.94663 5.8101 7.90921 5.62198 7.83651 5.44647C7.7638 5.27095 7.65724 5.11147 7.52291 4.97713C7.38857 4.8428 7.22909 4.73624 7.05358 4.66354C6.87806 4.59083 6.68994 4.55342 6.49996 4.55342ZM12.2925 3.12425C12.2894 2.67377 12.2064 2.22741 12.0475 1.80591C11.9304 1.49748 11.7492 1.21739 11.5159 0.984106C11.2827 0.750826 11.0026 0.569667 10.6941 0.452581C10.2726 0.293602 9.82627 0.21065 9.37579 0.207581C8.62329 0.166748 8.40163 0.166748 6.49996 0.166748C4.59829 0.166748 4.37663 0.166748 3.62413 0.207581C3.17365 0.21065 2.72729 0.293602 2.30579 0.452581C1.99736 0.569667 1.71726 0.750826 1.48398 0.984106C1.2507 1.21739 1.06954 1.49748 0.952459 1.80591C0.79348 2.22741 0.710528 2.67377 0.707459 3.12425C0.666626 3.87675 0.666626 4.09841 0.666626 6.00008C0.666626 7.90175 0.666626 8.12342 0.707459 8.87592C0.713738 9.32798 0.796578 9.7757 0.952459 10.2001C1.06903 10.5071 1.25003 10.7856 1.48329 11.0167C1.71557 11.2514 1.99627 11.4326 2.30579 11.5476C2.72729 11.7066 3.17365 11.7895 3.62413 11.7926C4.37663 11.8334 4.59829 11.8334 6.49996 11.8334C8.40163 11.8334 8.62329 11.8334 9.37579 11.7926C9.82627 11.7895 10.2726 11.7066 10.6941 11.5476C11.0036 11.4326 11.2843 11.2514 11.5166 11.0167C11.7499 10.7856 11.9309 10.5071 12.0475 10.2001C12.2063 9.77652 12.2892 9.32827 12.2925 8.87592C12.3333 8.12342 12.3333 7.90175 12.3333 6.00008C12.3333 4.09841 12.3333 3.87675 12.2925 3.12425ZM10.8108 7.79092C10.7921 8.15089 10.7152 8.50547 10.5833 8.84092C10.47 9.12073 10.3017 9.37492 10.0882 9.58837C9.8748 9.80182 9.62061 9.97017 9.34079 10.0834C9.00218 10.208 8.64562 10.277 8.28496 10.2876C7.82413 10.2876 7.70163 10.2876 6.49996 10.2876C5.29829 10.2876 5.17579 10.2876 4.71496 10.2876C4.3543 10.277 3.99774 10.208 3.65913 10.0834C3.36985 9.97592 3.10862 9.80442 2.89496 9.58175C2.6836 9.37248 2.52037 9.11967 2.41663 8.84092C2.29153 8.50265 2.22448 8.14568 2.21829 7.78508C2.21829 7.32425 2.21829 7.20175 2.21829 6.00008C2.21829 4.79842 2.21829 4.67591 2.21829 4.21508C2.22448 3.85448 2.29153 3.49751 2.41663 3.15925C2.52412 2.86998 2.69562 2.60874 2.91829 2.39508C3.12849 2.18486 3.38103 2.0218 3.65913 1.91675C3.99774 1.79215 4.3543 1.7232 4.71496 1.71258C5.17579 1.71258 5.29829 1.71258 6.49996 1.71258C7.70163 1.71258 7.82413 1.71258 8.28496 1.71258C8.64562 1.7232 9.00218 1.79215 9.34079 1.91675C9.63007 2.02425 9.8913 2.19574 10.105 2.41841C10.3163 2.62769 10.4796 2.88049 10.5833 3.15925C10.7079 3.49787 10.7768 3.85442 10.7875 4.21508C10.7875 4.67591 10.7875 4.79842 10.7875 6.00008C10.7875 7.20175 10.8283 7.32425 10.8108 7.78508V7.79092ZM9.87746 3.45092C9.80801 3.26249 9.6985 3.09137 9.5565 2.94937C9.4145 2.80737 9.24339 2.69787 9.05496 2.62841C8.79624 2.53873 8.52374 2.49529 8.24996 2.50008C7.79496 2.50008 7.66663 2.50008 6.49996 2.50008C5.33329 2.50008 5.20496 2.50008 4.74996 2.50008C4.47478 2.50277 4.20225 2.55412 3.94496 2.65175C3.75942 2.71805 3.59011 2.82308 3.4483 2.95987C3.30649 3.09665 3.19541 3.26205 3.12246 3.44508C3.03775 3.70488 2.99636 3.97685 2.99996 4.25008C2.99996 4.70508 2.99996 4.83342 2.99996 6.00008C2.99996 7.16675 2.99996 7.29508 2.99996 7.75008C3.00574 8.02495 3.05699 8.29696 3.15163 8.55508C3.22108 8.74351 3.33058 8.91462 3.47258 9.05662C3.61458 9.19862 3.7857 9.30813 3.97413 9.37758C4.22301 9.46912 4.48492 9.52031 4.74996 9.52925C5.20496 9.52925 5.33329 9.52925 6.49996 9.52925C7.66663 9.52925 7.79496 9.52925 8.24996 9.52925C8.52514 9.52656 8.79767 9.47521 9.05496 9.37758C9.24339 9.30813 9.4145 9.19862 9.5565 9.05662C9.6985 8.91462 9.80801 8.74351 9.87746 8.55508C9.97509 8.29779 10.0264 8.02526 10.0291 7.75008C10.0291 7.29508 10.0291 7.16675 10.0291 6.00008C10.0291 4.83342 10.0291 4.70508 10.0291 4.25008C10.0293 3.97463 9.97785 3.70159 9.87746 3.44508V3.45092ZM6.49996 8.22842C6.20761 8.22842 5.91812 8.17074 5.6481 8.05868C5.37807 7.94663 5.1328 7.7824 4.92635 7.5754C4.71989 7.3684 4.55631 7.12271 4.44496 6.85239C4.33361 6.58207 4.27669 6.29244 4.27746 6.00008C4.27746 5.55911 4.4083 5.12805 4.65341 4.76148C4.89852 4.39491 5.24688 4.1093 5.6544 3.94082C6.06191 3.77233 6.51026 3.72855 6.94267 3.815C7.37508 3.90146 7.77212 4.11426 8.08353 4.42649C8.39493 4.73871 8.6067 5.1363 8.69202 5.56894C8.77734 6.00158 8.73238 6.44981 8.56283 6.85688C8.39327 7.26395 8.10676 7.61156 7.73954 7.85571C7.37233 8.09986 6.94093 8.22957 6.49996 8.22842ZM8.83329 4.20925C8.70434 4.1956 8.58501 4.13471 8.49828 4.03831C8.41154 3.94192 8.36356 3.81684 8.36356 3.68716C8.36356 3.55749 8.41154 3.43241 8.49828 3.33602C8.58501 3.23962 8.70434 3.17873 8.83329 3.16508C8.96224 3.17873 9.08158 3.23962 9.16831 3.33602C9.25504 3.43241 9.30303 3.55749 9.30303 3.68716C9.30303 3.81684 9.25504 3.94192 9.16831 4.03831C9.08158 4.13471 8.96224 4.1956 8.83329 4.20925Z" fill="black"/>
</svg>
