<svg width="52" height="52" viewBox="0 0 52 52" fill="none" xmlns="http://www.w3.org/2000/svg">
<path d="M38.9999 29.7143C39.0086 27.3963 38.3973 25.1181 37.2294 23.1158C36.0616 21.1135 34.3796 19.4599 32.3577 18.3263C30.3358 17.1927 28.0475 16.6203 25.73 16.6684C23.4125 16.7165 21.1501 17.3834 19.177 18.6C17.2039 19.8166 15.592 21.5387 14.5083 23.5877C13.4245 25.6368 12.9084 27.9384 13.0133 30.254C13.1182 32.5696 13.8404 34.8151 15.105 36.7578C16.3696 38.7004 18.1306 40.2696 20.2056 41.3028V47.6914C20.2153 48.0691 20.3722 48.4281 20.6428 48.6918C20.9134 48.9554 21.2764 49.1029 21.6542 49.1028H30.3456C30.7235 49.1029 31.0864 48.9554 31.357 48.6918C31.6276 48.4281 31.7845 48.0691 31.7942 47.6914V41.1914C33.9345 40.1259 35.7396 38.4909 37.0108 36.466C38.2821 34.4412 38.9704 32.1049 38.9999 29.7143V29.7143Z" stroke="black" stroke-width="1.71429" stroke-linecap="round" stroke-linejoin="round"/>
<path d="M26 3.00854V8.57997" stroke="black" stroke-width="1.71429" stroke-linecap="round" stroke-linejoin="round"/>
<path d="M40.8571 8.31995L36.9199 12.2942" stroke="black" stroke-width="1.71429" stroke-linecap="round" stroke-linejoin="round"/>
<path d="M49.3258 19.8343H43.7544" stroke="black" stroke-width="1.71429" stroke-linecap="round" stroke-linejoin="round"/>
<path d="M11.1431 8.31995L15.0802 12.2942" stroke="black" stroke-width="1.71429" stroke-linecap="round" stroke-linejoin="round"/>
<path d="M2.67432 19.8343H8.24574" stroke="black" stroke-width="1.71429" stroke-linecap="round" stroke-linejoin="round"/>
</svg>
