<svg width="14" height="13" viewBox="0 0 14 13" fill="none" xmlns="http://www.w3.org/2000/svg">
<path d="M0.666626 1.95202C0.666626 1.53114 0.807396 1.18391 1.08892 0.910354C1.37045 0.63678 1.73645 0.5 2.1869 0.5C2.62931 0.5 2.98725 0.634672 3.26074 0.90404C3.54227 1.18182 3.68304 1.54376 3.68304 1.9899C3.68304 2.39394 3.5463 2.73063 3.2728 3C2.99128 3.27778 2.62126 3.41667 2.16276 3.41667H2.1507C1.70829 3.41667 1.35035 3.27778 1.07686 3C0.803366 2.72222 0.666626 2.37289 0.666626 1.95202ZM0.823479 13V4.56566H3.50205V13H0.823479ZM4.98612 13H7.6647V8.2904C7.6647 7.99578 7.69687 7.76851 7.76122 7.60859C7.87383 7.32239 8.04476 7.08038 8.27401 6.88258C8.50326 6.68476 8.79082 6.58586 9.1367 6.58586C10.0376 6.58586 10.4881 7.22138 10.4881 8.49242V13H13.1666V8.16414C13.1666 6.91835 12.8851 5.97348 12.322 5.32955C11.759 4.68561 11.0149 4.36364 10.0899 4.36364C9.05224 4.36364 8.24385 4.83081 7.6647 5.76515V5.7904H7.65263L7.6647 5.76515V4.56566H4.98612C5.00221 4.83501 5.01026 5.67255 5.01026 7.07828C5.01026 8.484 5.00221 10.4579 4.98612 13Z" fill="black"/>
</svg>
