<svg width="14" height="18" viewBox="0 0 14 18" fill="none" xmlns="http://www.w3.org/2000/svg">
<path d="M0 6.75C2.76642e-08 4.95979 0.737498 3.2429 2.05025 1.97703C3.36301 0.711159 5.14348 0 7 0C8.85651 0 10.637 0.711159 11.9497 1.97703C13.2625 3.2429 14 4.95979 14 6.75C14 11.25 7 18 7 18C7 18 0 11.25 0 6.75ZM4.08333 6.75C4.08333 7.49592 4.39062 8.21129 4.9376 8.73874C5.48459 9.26618 6.22645 9.5625 7 9.5625C7.77355 9.5625 8.51541 9.26618 9.06239 8.73874C9.60938 8.21129 9.91667 7.49592 9.91667 6.75C9.91667 6.00408 9.60938 5.28871 9.06239 4.76126C8.51541 4.23382 7.77355 3.9375 7 3.9375C6.22645 3.9375 5.48459 4.23382 4.9376 4.76126C4.39062 5.28871 4.08333 6.00408 4.08333 6.75Z" fill="black"/>
</svg>
