<svg width="48" height="48" viewBox="0 0 48 48" fill="none" xmlns="http://www.w3.org/2000/svg">
<g clip-path="url(#clip0_104_1088)">
<path d="M15.75 31.5C19.8232 31.5 23.5275 29.9332 26.3265 27.387L29.6895 30.75L27.4395 33L42.75 48.3105L48.3105 42.75L33 27.4395L30.75 29.6895L27.387 26.3265C29.9325 23.5275 31.5 19.8232 31.5 15.75C31.5 7.065 24.4342 0 15.75 0C7.06575 0 0 7.065 0 15.75C0 24.435 7.06575 31.5 15.75 31.5ZM46.1895 42.75L42.75 46.1895L29.5605 33L33 29.5605L46.1895 42.75ZM15.75 1.5C23.6077 1.5 30 7.89225 30 15.75C30 23.6077 23.6077 30 15.75 30C7.89225 30 1.5 23.6077 1.5 15.75C1.5 7.89225 7.89225 1.5 15.75 1.5Z" fill="black"/>
</g>
<defs>
<clipPath id="clip0_104_1088">
<rect width="48" height="48" fill="white"/>
</clipPath>
</defs>
</svg>
