<svg width="48" height="47" viewBox="0 0 48 47" fill="none" xmlns="http://www.w3.org/2000/svg">
<path d="M17.143 20.1428C21.4035 20.1428 24.8573 16.761 24.8573 12.5893C24.8573 8.41755 21.4035 5.03571 17.143 5.03571C12.8825 5.03571 9.42871 8.41755 9.42871 12.5893C9.42871 16.761 12.8825 20.1428 17.143 20.1428Z" stroke="black" stroke-width="1.71429" stroke-linecap="round" stroke-linejoin="round"/>
<path d="M32.5715 45.3214H1.71436V41.9643C1.71436 37.9576 3.33986 34.115 6.23328 31.2819C9.1267 28.4488 13.051 26.8571 17.1429 26.8571C21.2348 26.8571 25.1592 28.4488 28.0526 31.2819C30.946 34.115 32.5715 37.9576 32.5715 41.9643V45.3214Z" stroke="black" stroke-width="1.71429" stroke-linecap="round" stroke-linejoin="round"/>
<path d="M30.8574 5.03571C32.9034 5.03571 34.8655 5.83153 36.3122 7.2481C37.759 8.66466 38.5717 10.5859 38.5717 12.5893C38.5717 14.5926 37.759 16.5139 36.3122 17.9305C34.8655 19.347 32.9034 20.1428 30.8574 20.1428" stroke="black" stroke-width="1.71429" stroke-linecap="round" stroke-linejoin="round"/>
<path d="M36.3428 27.495C39.2633 28.5829 41.7777 30.5134 43.5532 33.0312C45.3287 35.549 46.2815 38.5353 46.2856 41.595V45.3214H41.1428" stroke="black" stroke-width="1.71429" stroke-linecap="round" stroke-linejoin="round"/>
</svg>
