<svg width="46" height="46" viewBox="0 0 46 46" fill="none" xmlns="http://www.w3.org/2000/svg">
<path d="M24.6102 3.58143L29.8344 14.1286C29.9533 14.3963 30.1402 14.6282 30.3765 14.8011C30.6129 14.9741 30.8905 15.082 31.1816 15.1143L42.7144 16.8229C43.0484 16.8658 43.3632 17.0028 43.6221 17.218C43.8811 17.4331 44.0735 17.7175 44.1769 18.038C44.2802 18.3584 44.2903 18.7016 44.2059 19.0275C44.1215 19.3534 43.9461 19.6486 43.7002 19.8786L35.3873 28.1257C35.1751 28.3239 35.0159 28.5721 34.9241 28.8475C34.8323 29.123 34.8108 29.417 34.8616 29.7029L36.8659 41.3014C36.9239 41.6347 36.8872 41.9776 36.76 42.291C36.6328 42.6045 36.4201 42.8759 36.1463 43.0745C35.8724 43.2731 35.5482 43.3908 35.2108 43.4142C34.8733 43.4377 34.536 43.3659 34.2373 43.2071L23.8544 37.72C23.5886 37.5895 23.2963 37.5216 23.0002 37.5216C22.704 37.5216 22.4117 37.5895 22.1459 37.72L11.763 43.2071C11.4643 43.3659 11.127 43.4377 10.7895 43.4142C10.4521 43.3908 10.1279 43.2731 9.85407 43.0745C9.58018 42.8759 9.36753 42.6045 9.24031 42.291C9.1131 41.9776 9.07641 41.6347 9.13445 41.3014L11.1387 29.5714C11.1895 29.2856 11.168 28.9915 11.0762 28.7161C10.9844 28.4406 10.8252 28.1925 10.613 27.9943L2.20159 19.8786C1.95274 19.6423 1.77773 19.339 1.69777 19.0053C1.61781 18.6716 1.63633 18.3219 1.75108 17.9985C1.86582 17.6751 2.07188 17.3919 2.34429 17.1833C2.6167 16.9746 2.94377 16.8494 3.28588 16.8229L14.8187 15.1143C15.1098 15.082 15.3874 14.9741 15.6238 14.8011C15.8601 14.6282 16.0471 14.3963 16.1659 14.1286L21.3902 3.58143C21.5324 3.27425 21.7596 3.01417 22.0449 2.83191C22.3302 2.64964 22.6616 2.5528 23.0002 2.5528C23.3387 2.5528 23.6702 2.64964 23.9554 2.83191C24.2407 3.01417 24.4679 3.27425 24.6102 3.58143V3.58143Z" stroke="black" stroke-width="1.71429" stroke-linecap="round" stroke-linejoin="round"/>
</svg>
