<svg width="17" height="17" viewBox="0 0 17 17" fill="none" xmlns="http://www.w3.org/2000/svg">
<path d="M12.8612 10.6996L11.4394 11.4987C11.2688 11.5945 11.0714 11.632 10.8774 11.6054C10.6834 11.5788 10.5035 11.4896 10.365 11.3515L5.61952 6.61719C5.48112 6.47904 5.39179 6.29953 5.36515 6.10603C5.33851 5.91253 5.37603 5.71564 5.47197 5.54538L6.27298 4.12693C6.41716 3.87164 6.47361 3.57628 6.43371 3.28597C6.3938 2.99566 6.25973 2.72636 6.05199 2.51922L3.92095 0.393236C3.79605 0.268569 3.64775 0.169674 3.48453 0.102201C3.32131 0.0347283 3.14636 0 2.96967 0C2.79299 0 2.61804 0.0347283 2.45482 0.102201C2.29159 0.169674 2.1433 0.268569 2.01839 0.393236L1.05079 1.35786C0.484971 1.92233 0.124553 2.65932 0.0268486 3.45164C-0.0708554 4.24396 0.0997635 5.04612 0.511576 5.73057L0.997076 6.53782C3.47641 10.6602 6.97593 14.0778 11.1599 16.4629L11.2558 16.5179C12.6851 17.3326 14.451 17.0951 15.5954 15.9541L16.6058 14.9461C16.7308 14.8215 16.8299 14.6735 16.8976 14.5107C16.9652 14.3479 17 14.1733 17 13.9971C17 13.8208 16.9652 13.6463 16.8976 13.4834C16.8299 13.3206 16.7308 13.1727 16.6058 13.048L14.4734 10.9207C14.2658 10.7132 13.9958 10.5792 13.7047 10.5393C13.4135 10.4993 13.1173 10.5556 12.8612 10.6996V10.6996Z" fill="black"/>
</svg>
