<svg width="28" height="28" viewBox="0 0 28 28" fill="none" xmlns="http://www.w3.org/2000/svg">
<path d="M25.6665 12.3334H15.6665V2.33341C15.6665 1.89139 15.4909 1.46746 15.1783 1.1549C14.8658 0.842343 14.4419 0.666748 13.9998 0.666748C13.5578 0.666748 13.1339 0.842343 12.8213 1.1549C12.5088 1.46746 12.3332 1.89139 12.3332 2.33341V12.3334H2.33317C1.89114 12.3334 1.46722 12.509 1.15466 12.8216C0.842099 13.1341 0.666504 13.5581 0.666504 14.0001C0.666504 14.4421 0.842099 14.866 1.15466 15.1786C1.46722 15.4912 1.89114 15.6667 2.33317 15.6667H12.3332V25.6667C12.3332 26.1088 12.5088 26.5327 12.8213 26.8453C13.1339 27.1578 13.5578 27.3334 13.9998 27.3334C14.4419 27.3334 14.8658 27.1578 15.1783 26.8453C15.4909 26.5327 15.6665 26.1088 15.6665 25.6667V15.6667H25.6665C26.1085 15.6667 26.5325 15.4912 26.845 15.1786C27.1576 14.866 27.3332 14.4421 27.3332 14.0001C27.3332 13.5581 27.1576 13.1341 26.845 12.8216C26.5325 12.509 26.1085 12.3334 25.6665 12.3334Z" fill="#6BF2C1"/>
</svg>
