<svg width="42" height="42" viewBox="0 0 42 42" fill="none" xmlns="http://www.w3.org/2000/svg">
<path d="M28.0041 27.9975C27.0858 28.9182 25.9947 29.6483 24.7935 30.146C23.5922 30.6437 22.3044 30.8991 21.0041 30.8975C18.2624 30.8975 15.7874 29.7892 13.9957 27.9975C14.6859 26.7434 15.7007 25.698 16.9337 24.9708C18.1667 24.2436 19.5726 23.8613 21.0041 23.8642C24.0207 23.8642 26.6457 25.5308 28.0041 27.9975Z" stroke="black" stroke-width="2" stroke-miterlimit="10" stroke-linecap="round" stroke-linejoin="round"/>
<path d="M20.9999 23.8683C19.0591 23.8683 17.4833 21.5416 17.4833 19.6016C17.4833 17.6616 19.0591 16.0841 20.9999 16.0841C22.9408 16.0841 24.5166 17.6608 24.5166 19.6008C24.5166 21.5408 22.9408 23.8683 20.9999 23.8683Z" stroke="black" stroke-width="2" stroke-miterlimit="10" stroke-linecap="round" stroke-linejoin="round"/>
<path d="M30.904 20.9975C30.904 23.7308 29.7957 26.2058 28.004 27.9975C27.0858 28.9182 25.9947 29.6484 24.7934 30.146C23.5921 30.6437 22.3043 30.8991 21.004 30.8975C18.2624 30.8975 15.7874 29.7892 13.9957 27.9975C13.075 27.0793 12.3449 25.9882 11.8472 24.7869C11.3495 23.5856 11.0941 22.2978 11.0957 20.9975C11.0957 15.5225 15.529 11.0892 21.004 11.0892C26.4707 11.0892 30.904 15.5225 30.904 20.9975V20.9975Z" stroke="black" stroke-width="2" stroke-miterlimit="10" stroke-linecap="round" stroke-linejoin="round"/>
<path d="M41 18.85V23.14L37.0917 24.6267C36.6763 26.4613 35.9494 28.2111 34.9425 29.8L36.6508 33.6167L33.6267 36.65L29.8 34.9333C28.2156 35.9418 26.4687 36.6689 24.6367 37.0825L23.14 40.99H18.86L17.3633 37.0817C15.5313 36.6681 13.7844 35.941 12.2 34.9325L8.37333 36.6508L5.34917 33.6175L7.0575 29.8C6.05035 28.2112 5.32314 26.4613 4.9075 24.6267L1 23.14V18.85L4.90833 17.3633C5.32002 15.5275 6.0472 13.7771 7.0575 12.19L5.34917 8.37333L8.37333 5.34L12.2 7.05667C13.7844 6.04815 15.5313 5.32107 17.3633 4.9075L18.86 1H23.14L24.6367 4.90833C26.4687 5.3219 28.2156 6.04899 29.8 7.0575L33.6267 5.33917L36.6508 8.3725L34.9425 12.19C35.9531 13.7771 36.6806 15.5275 37.0925 17.3633L41 18.85Z" stroke="black" stroke-width="2" stroke-miterlimit="10" stroke-linecap="round" stroke-linejoin="round"/>
</svg>
