<svg width="14" height="11" viewBox="0 0 14 11" fill="none" xmlns="http://www.w3.org/2000/svg">
<path d="M13.1666 1.20224C12.6964 1.40732 12.1991 1.54361 11.6901 1.60693C12.2265 1.28867 12.6276 0.784712 12.8174 0.190521C12.3151 0.488441 11.7655 0.698237 11.1924 0.810834C10.841 0.435661 10.385 0.174833 9.88342 0.0622357C9.38188 -0.0503615 8.85807 -0.00952269 8.38004 0.179446C7.90202 0.368415 7.49187 0.69678 7.20289 1.12188C6.91391 1.54698 6.75946 2.04916 6.75959 2.56318C6.75959 2.7663 6.77678 2.96162 6.81897 3.14755C5.7995 3.09757 4.80206 2.83298 3.89186 2.37108C2.98166 1.90918 2.1792 1.26038 1.53694 0.467084C1.20789 1.03104 1.10616 1.6992 1.25247 2.33552C1.39878 2.97185 1.78212 3.52848 2.32444 3.89208C1.91878 3.88121 1.52168 3.77296 1.16663 3.57646V3.60458C1.16731 4.19633 1.37183 4.76977 1.74578 5.22838C2.11973 5.68699 2.64026 6.00277 3.21975 6.12255C3.00052 6.18033 2.77458 6.2087 2.54788 6.20693C2.38505 6.20982 2.2224 6.19515 2.06272 6.16318C2.2283 6.67179 2.54748 7.11657 2.97631 7.43627C3.40514 7.75597 3.92253 7.93487 4.45725 7.94833C3.55017 8.65774 2.43145 9.04257 1.27991 9.0413C1.06975 9.0413 0.868188 9.03193 0.666626 9.00615C1.83841 9.76126 3.20387 10.1607 4.59788 10.1561C9.3135 10.1561 11.8916 6.2499 11.8916 2.86396C11.8916 2.75068 11.8877 2.6413 11.8823 2.53271C12.3877 2.17098 12.8229 1.72012 13.1666 1.20224Z" fill="black"/>
</svg>
