<svg width="49" height="49" viewBox="0 0 49 49" fill="none" xmlns="http://www.w3.org/2000/svg">
<path d="M38.3062 21.1965C37.7781 21.1965 37.3461 21.6285 37.3461 22.1566V44.2004C37.3461 45.4005 36.3668 46.3702 35.1667 46.3702H4.28996C3.08984 46.3702 2.12014 45.3909 2.12014 44.2004V13.3237C2.12014 12.1236 3.09944 11.1539 4.28996 11.1539H26.3242C26.8522 11.1539 27.2843 10.7219 27.2843 10.1938C27.2843 9.66575 26.8522 9.2337 26.3242 9.2337H4.28996C2.03374 9.2337 0.199951 11.0675 0.199951 13.3237V44.21C0.199951 46.4662 2.03374 48.3 4.28996 48.3H35.1763C37.4325 48.3 39.2759 46.4662 39.2759 44.21V22.1566C39.2663 21.6285 38.8342 21.1965 38.3062 21.1965Z" fill="black"/>
<path d="M47.3696 3.67473L44.8157 1.12087C43.7212 0.0263604 41.9354 0.0263604 40.8313 1.12087L25.0858 16.8664C24.9801 16.9721 24.8937 17.1065 24.8553 17.2505L22.3687 24.9121C22.2535 25.2577 22.3495 25.6321 22.5991 25.8914C22.7815 26.0738 23.0311 26.1698 23.2808 26.1698C23.3768 26.1698 23.4824 26.1506 23.5784 26.1218L31.24 23.6351C31.384 23.5871 31.5184 23.5103 31.624 23.4047L47.3696 7.65912C48.4737 6.55501 48.4737 4.76924 47.3696 3.67473ZM30.9519 21.3597L27.1308 17.5385L38.5751 6.09417L42.3963 9.91535L30.9519 21.3597ZM26.1995 19.3243L29.1566 22.2814L24.7785 23.7023L26.1995 19.3243ZM46.0159 6.29579L43.7596 8.55201L39.9384 4.73083L42.1947 2.47461C42.5403 2.12897 43.1164 2.12897 43.462 2.47461L46.0159 5.02846C46.3615 5.3741 46.3615 5.94055 46.0159 6.29579Z" fill="black"/>
</svg>
